solid ascii
  facet normal 7.071068e-001 -7.071068e-001 0.000000e+000
    outer loop
      vertex   -8.530000e+001 2.830000e+001 8.881784e-015
      vertex   -8.530000e+001 2.830000e+001 3.050000e+001
      vertex   -8.630000e+001 2.730000e+001 8.881784e-015
    endloop
  endfacet
  facet normal 7.071068e-001 -7.071068e-001 0.000000e+000
    outer loop
      vertex   -8.630000e+001 2.730000e+001 8.881784e-015
      vertex   -8.530000e+001 2.830000e+001 3.050000e+001
      vertex   -8.630000e+001 2.730000e+001 3.050000e+001
    endloop
  endfacet
  facet normal 7.071068e-001 -7.071068e-001 0.000000e+000
    outer loop
      vertex   -8.630000e+001 2.730000e+001 3.050000e+001
      vertex   -8.530000e+001 2.830000e+001 3.050000e+001
      vertex   -8.530000e+001 2.830000e+001 6.100000e+001
    endloop
  endfacet
  facet normal 7.071068e-001 -7.071068e-001 0.000000e+000
    outer loop
      vertex   -8.630000e+001 2.730000e+001 6.100000e+001
      vertex   -8.630000e+001 2.730000e+001 3.050000e+001
      vertex   -8.530000e+001 2.830000e+001 6.100000e+001
    endloop
  endfacet
  facet normal -0.000000e+000 -1.000000e+000 -0.000000e+000
    outer loop
      vertex   -5.430000e+001 2.830000e+001 6.100000e+001
      vertex   -8.530000e+001 2.830000e+001 6.100000e+001
      vertex   -5.430000e+001 2.830000e+001 3.050000e+001
    endloop
  endfacet
  facet normal -0.000000e+000 -1.000000e+000 -0.000000e+000
    outer loop
      vertex   -5.430000e+001 2.830000e+001 3.050000e+001
      vertex   -8.530000e+001 2.830000e+001 6.100000e+001
      vertex   -8.530000e+001 2.830000e+001 3.050000e+001
    endloop
  endfacet
  facet normal -0.000000e+000 -1.000000e+000 -0.000000e+000
    outer loop
      vertex   -5.430000e+001 2.830000e+001 8.881784e-015
      vertex   -8.530000e+001 2.830000e+001 3.050000e+001
      vertex   -8.530000e+001 2.830000e+001 8.881784e-015
    endloop
  endfacet
  facet normal 0.000000e+000 -1.000000e+000 0.000000e+000
    outer loop
      vertex   -5.430000e+001 2.830000e+001 8.881784e-015
      vertex   -5.430000e+001 2.830000e+001 3.050000e+001
      vertex   -8.530000e+001 2.830000e+001 3.050000e+001
    endloop
  endfacet
  facet normal -7.071068e-001 -7.071068e-001 0.000000e+000
    outer loop
      vertex   -5.330000e+001 2.730000e+001 8.881784e-015
      vertex   -5.330000e+001 2.730000e+001 3.050000e+001
      vertex   -5.430000e+001 2.830000e+001 8.881784e-015
    endloop
  endfacet
  facet normal -7.071068e-001 -7.071068e-001 0.000000e+000
    outer loop
      vertex   -5.430000e+001 2.830000e+001 8.881784e-015
      vertex   -5.330000e+001 2.730000e+001 3.050000e+001
      vertex   -5.430000e+001 2.830000e+001 3.050000e+001
    endloop
  endfacet
  facet normal -7.071068e-001 -7.071068e-001 0.000000e+000
    outer loop
      vertex   -5.430000e+001 2.830000e+001 3.050000e+001
      vertex   -5.330000e+001 2.730000e+001 3.050000e+001
      vertex   -5.330000e+001 2.730000e+001 6.100000e+001
    endloop
  endfacet
  facet normal -7.071068e-001 -7.071068e-001 -0.000000e+000
    outer loop
      vertex   -5.430000e+001 2.830000e+001 6.100000e+001
      vertex   -5.430000e+001 2.830000e+001 3.050000e+001
      vertex   -5.330000e+001 2.730000e+001 6.100000e+001
    endloop
  endfacet
  facet normal -1.000000e+000 0.000000e+000 -0.000000e+000
    outer loop
      vertex   -5.330000e+001 2.500000e+001 6.100000e+001
      vertex   -5.330000e+001 2.730000e+001 6.100000e+001
      vertex   -5.330000e+001 2.500000e+001 3.050000e+001
    endloop
  endfacet
  facet normal -1.000000e+000 0.000000e+000 0.000000e+000
    outer loop
      vertex   -5.330000e+001 2.500000e+001 3.050000e+001
      vertex   -5.330000e+001 2.730000e+001 6.100000e+001
      vertex   -5.330000e+001 2.730000e+001 3.050000e+001
    endloop
  endfacet
  facet normal -1.000000e+000 0.000000e+000 0.000000e+000
    outer loop
      vertex   -5.330000e+001 2.500000e+001 8.881784e-015
      vertex   -5.330000e+001 2.730000e+001 3.050000e+001
      vertex   -5.330000e+001 2.730000e+001 8.881784e-015
    endloop
  endfacet
  facet normal -1.000000e+000 0.000000e+000 0.000000e+000
    outer loop
      vertex   -5.330000e+001 2.500000e+001 8.881784e-015
      vertex   -5.330000e+001 2.500000e+001 3.050000e+001
      vertex   -5.330000e+001 2.730000e+001 3.050000e+001
    endloop
  endfacet
  facet normal 1.000000e+000 -0.000000e+000 4.659297e-016
    outer loop
      vertex   -8.630000e+001 2.500000e+001 8.881784e-015
      vertex   -8.630000e+001 2.730000e+001 8.881784e-015
      vertex   -8.630000e+001 2.500000e+001 3.050000e+001
    endloop
  endfacet
  facet normal 1.000000e+000 -6.178632e-015 0.000000e+000
    outer loop
      vertex   -8.630000e+001 2.500000e+001 3.050000e+001
      vertex   -8.630000e+001 2.730000e+001 8.881784e-015
      vertex   -8.630000e+001 2.730000e+001 3.050000e+001
    endloop
  endfacet
  facet normal 1.000000e+000 -0.000000e+000 0.000000e+000
    outer loop
      vertex   -8.630000e+001 2.500000e+001 6.100000e+001
      vertex   -8.630000e+001 2.730000e+001 3.050000e+001
      vertex   -8.630000e+001 2.730000e+001 6.100000e+001
    endloop
  endfacet
  facet normal 1.000000e+000 -6.178632e-015 -4.659297e-016
    outer loop
      vertex   -8.630000e+001 2.500000e+001 6.100000e+001
      vertex   -8.630000e+001 2.500000e+001 3.050000e+001
      vertex   -8.630000e+001 2.730000e+001 3.050000e+001
    endloop
  endfacet
  facet normal 0.000000e+000 -0.000000e+000 1.000000e+000
    outer loop
      vertex   -8.630000e+001 2.500000e+001 6.100000e+001
      vertex   -8.630000e+001 2.730000e+001 6.100000e+001
      vertex   -9.100000e+001 2.500000e+001 6.100000e+001
    endloop
  endfacet
  facet normal 0.000000e+000 -0.000000e+000 1.000000e+000
    outer loop
      vertex   -9.100000e+001 2.500000e+001 6.100000e+001
      vertex   -8.630000e+001 2.730000e+001 6.100000e+001
      vertex   -9.100000e+001 3.260000e+001 6.100000e+001
    endloop
  endfacet
  facet normal -0.000000e+000 0.000000e+000 1.000000e+000
    outer loop
      vertex   -9.100000e+001 3.260000e+001 6.100000e+001
      vertex   -8.630000e+001 2.730000e+001 6.100000e+001
      vertex   -8.530000e+001 2.830000e+001 6.100000e+001
    endloop
  endfacet
  facet normal -0.000000e+000 0.000000e+000 1.000000e+000
    outer loop
      vertex   -8.200000e+001 3.260000e+001 6.100000e+001
      vertex   -8.530000e+001 2.830000e+001 6.100000e+001
      vertex   -7.870000e+001 3.260000e+001 6.100000e+001
    endloop
  endfacet
  facet normal -0.000000e+000 0.000000e+000 1.000000e+000
    outer loop
      vertex   -7.870000e+001 3.590000e+001 6.100000e+001
      vertex   -8.200000e+001 3.260000e+001 6.100000e+001
      vertex   -7.870000e+001 3.260000e+001 6.100000e+001
    endloop
  endfacet
  facet normal 0.000000e+000 0.000000e+000 1.000000e+000
    outer loop
      vertex   -7.870000e+001 3.590000e+001 6.100000e+001
      vertex   -8.200000e+001 3.990000e+001 6.100000e+001
      vertex   -8.200000e+001 3.260000e+001 6.100000e+001
    endloop
  endfacet
  facet normal 0.000000e+000 -0.000000e+000 1.000000e+000
    outer loop
      vertex   -7.870000e+001 3.590000e+001 6.100000e+001
      vertex   -7.870000e+001 3.840000e+001 6.100000e+001
      vertex   -8.200000e+001 3.990000e+001 6.100000e+001
    endloop
  endfacet
  facet normal 0.000000e+000 -0.000000e+000 1.000000e+000
    outer loop
      vertex   -7.870000e+001 3.590000e+001 6.100000e+001
      vertex   -7.270000e+001 3.590000e+001 6.100000e+001
      vertex   -7.870000e+001 3.840000e+001 6.100000e+001
    endloop
  endfacet
  facet normal -0.000000e+000 0.000000e+000 1.000000e+000
    outer loop
      vertex   -7.870000e+001 3.840000e+001 6.100000e+001
      vertex   -7.270000e+001 3.590000e+001 6.100000e+001
      vertex   -7.270000e+001 3.840000e+001 6.100000e+001
    endloop
  endfacet
  facet normal 0.000000e+000 -0.000000e+000 1.000000e+000
    outer loop
      vertex   -8.530000e+001 2.830000e+001 6.100000e+001
      vertex   -5.430000e+001 2.830000e+001 6.100000e+001
      vertex   -7.870000e+001 3.260000e+001 6.100000e+001
    endloop
  endfacet
  facet normal -0.000000e+000 0.000000e+000 1.000000e+000
    outer loop
      vertex   -7.870000e+001 3.260000e+001 6.100000e+001
      vertex   -5.430000e+001 2.830000e+001 6.100000e+001
      vertex   -5.000000e+001 3.080000e+001 6.100000e+001
    endloop
  endfacet
  facet normal 0.000000e+000 0.000000e+000 1.000000e+000
    outer loop
      vertex   -5.000000e+001 3.260000e+001 6.100000e+001
      vertex   -7.870000e+001 3.260000e+001 6.100000e+001
      vertex   -5.000000e+001 3.080000e+001 6.100000e+001
    endloop
  endfacet
  facet normal -0.000000e+000 0.000000e+000 1.000000e+000
    outer loop
      vertex   -5.000000e+001 3.080000e+001 6.100000e+001
      vertex   -5.430000e+001 2.830000e+001 6.100000e+001
      vertex   -5.000000e+001 2.830000e+001 6.100000e+001
    endloop
  endfacet
  facet normal 0.000000e+000 0.000000e+000 1.000000e+000
    outer loop
      vertex   -4.400000e+001 2.830000e+001 6.100000e+001
      vertex   -5.000000e+001 3.080000e+001 6.100000e+001
      vertex   -5.000000e+001 2.830000e+001 6.100000e+001
    endloop
  endfacet
  facet normal 0.000000e+000 -0.000000e+000 1.000000e+000
    outer loop
      vertex   -4.400000e+001 2.830000e+001 6.100000e+001
      vertex   -4.400000e+001 3.080000e+001 6.100000e+001
      vertex   -5.000000e+001 3.080000e+001 6.100000e+001
    endloop
  endfacet
  facet normal 0.000000e+000 -0.000000e+000 1.000000e+000
    outer loop
      vertex   -5.330000e+001 2.500000e+001 6.100000e+001
      vertex   -5.000000e+001 2.500000e+001 6.100000e+001
      vertex   -5.330000e+001 2.730000e+001 6.100000e+001
    endloop
  endfacet
  facet normal -0.000000e+000 0.000000e+000 1.000000e+000
    outer loop
      vertex   -5.330000e+001 2.730000e+001 6.100000e+001
      vertex   -5.000000e+001 2.500000e+001 6.100000e+001
      vertex   -5.000000e+001 2.830000e+001 6.100000e+001
    endloop
  endfacet
  facet normal -0.000000e+000 0.000000e+000 1.000000e+000
    outer loop
      vertex   -5.430000e+001 2.830000e+001 6.100000e+001
      vertex   -5.330000e+001 2.730000e+001 6.100000e+001
      vertex   -5.000000e+001 2.830000e+001 6.100000e+001
    endloop
  endfacet
  facet normal 0.000000e+000 -0.000000e+000 1.000000e+000
    outer loop
      vertex   -7.870000e+001 3.840000e+001 6.100000e+001
      vertex   -7.870000e+001 3.990000e+001 6.100000e+001
      vertex   -8.200000e+001 3.990000e+001 6.100000e+001
    endloop
  endfacet
  facet normal 0.000000e+000 0.000000e+000 1.000000e+000
    outer loop
      vertex   -8.200000e+001 3.260000e+001 6.100000e+001
      vertex   -9.100000e+001 3.260000e+001 6.100000e+001
      vertex   -8.530000e+001 2.830000e+001 6.100000e+001
    endloop
  endfacet
  facet normal -0.000000e+000 -1.000000e+000 -0.000000e+000
    outer loop
      vertex   -5.000000e+001 2.500000e+001 6.100000e+001
      vertex   -5.330000e+001 2.500000e+001 6.100000e+001
      vertex   -5.000000e+001 2.500000e+001 3.050000e+001
    endloop
  endfacet
  facet normal -0.000000e+000 -1.000000e+000 -0.000000e+000
    outer loop
      vertex   -5.000000e+001 2.500000e+001 3.050000e+001
      vertex   -5.330000e+001 2.500000e+001 6.100000e+001
      vertex   -5.330000e+001 2.500000e+001 3.050000e+001
    endloop
  endfacet
  facet normal -0.000000e+000 -1.000000e+000 -0.000000e+000
    outer loop
      vertex   -5.000000e+001 2.500000e+001 8.881784e-015
      vertex   -5.330000e+001 2.500000e+001 3.050000e+001
      vertex   -5.330000e+001 2.500000e+001 8.881784e-015
    endloop
  endfacet
  facet normal 0.000000e+000 -1.000000e+000 0.000000e+000
    outer loop
      vertex   -5.000000e+001 2.500000e+001 8.881784e-015
      vertex   -5.000000e+001 2.500000e+001 3.050000e+001
      vertex   -5.330000e+001 2.500000e+001 3.050000e+001
    endloop
  endfacet
  facet normal 1.000000e+000 0.000000e+000 -0.000000e+000
    outer loop
      vertex   -7.870000e+001 3.260000e+001 8.881784e-015
      vertex   -7.870000e+001 3.590000e+001 8.881784e-015
      vertex   -7.870000e+001 3.260000e+001 3.050000e+001
    endloop
  endfacet
  facet normal 1.000000e+000 -0.000000e+000 0.000000e+000
    outer loop
      vertex   -7.870000e+001 3.260000e+001 3.050000e+001
      vertex   -7.870000e+001 3.590000e+001 8.881784e-015
      vertex   -7.870000e+001 3.590000e+001 3.050000e+001
    endloop
  endfacet
  facet normal 1.000000e+000 -0.000000e+000 0.000000e+000
    outer loop
      vertex   -7.870000e+001 3.260000e+001 6.100000e+001
      vertex   -7.870000e+001 3.590000e+001 3.050000e+001
      vertex   -7.870000e+001 3.590000e+001 6.100000e+001
    endloop
  endfacet
  facet normal 1.000000e+000 -0.000000e+000 0.000000e+000
    outer loop
      vertex   -7.870000e+001 3.260000e+001 6.100000e+001
      vertex   -7.870000e+001 3.260000e+001 3.050000e+001
      vertex   -7.870000e+001 3.590000e+001 3.050000e+001
    endloop
  endfacet
  facet normal 0.000000e+000 1.000000e+000 -0.000000e+000
    outer loop
      vertex   -5.000000e+001 3.260000e+001 8.881784e-015
      vertex   -7.870000e+001 3.260000e+001 8.881784e-015
      vertex   -5.000000e+001 3.260000e+001 3.050000e+001
    endloop
  endfacet
  facet normal 0.000000e+000 1.000000e+000 -0.000000e+000
    outer loop
      vertex   -5.000000e+001 3.260000e+001 3.050000e+001
      vertex   -7.870000e+001 3.260000e+001 8.881784e-015
      vertex   -7.870000e+001 3.260000e+001 3.050000e+001
    endloop
  endfacet
  facet normal 0.000000e+000 1.000000e+000 -0.000000e+000
    outer loop
      vertex   -5.000000e+001 3.260000e+001 6.100000e+001
      vertex   -7.870000e+001 3.260000e+001 3.050000e+001
      vertex   -7.870000e+001 3.260000e+001 6.100000e+001
    endloop
  endfacet
  facet normal 0.000000e+000 1.000000e+000 0.000000e+000
    outer loop
      vertex   -5.000000e+001 3.260000e+001 6.100000e+001
      vertex   -5.000000e+001 3.260000e+001 3.050000e+001
      vertex   -7.870000e+001 3.260000e+001 3.050000e+001
    endloop
  endfacet
  facet normal 1.000000e+000 0.000000e+000 -0.000000e+000
    outer loop
      vertex   -5.000000e+001 3.080000e+001 8.881784e-015
      vertex   -5.000000e+001 3.260000e+001 8.881784e-015
      vertex   -5.000000e+001 3.080000e+001 3.050000e+001
    endloop
  endfacet
  facet normal 1.000000e+000 -0.000000e+000 0.000000e+000
    outer loop
      vertex   -5.000000e+001 3.080000e+001 3.050000e+001
      vertex   -5.000000e+001 3.260000e+001 8.881784e-015
      vertex   -5.000000e+001 3.260000e+001 3.050000e+001
    endloop
  endfacet
  facet normal 1.000000e+000 -0.000000e+000 0.000000e+000
    outer loop
      vertex   -5.000000e+001 3.080000e+001 6.100000e+001
      vertex   -5.000000e+001 3.260000e+001 3.050000e+001
      vertex   -5.000000e+001 3.260000e+001 6.100000e+001
    endloop
  endfacet
  facet normal 1.000000e+000 -0.000000e+000 0.000000e+000
    outer loop
      vertex   -5.000000e+001 3.080000e+001 6.100000e+001
      vertex   -5.000000e+001 3.080000e+001 3.050000e+001
      vertex   -5.000000e+001 3.260000e+001 3.050000e+001
    endloop
  endfacet
  facet normal 0.000000e+000 1.000000e+000 -0.000000e+000
    outer loop
      vertex   -4.400000e+001 3.080000e+001 8.881784e-015
      vertex   -5.000000e+001 3.080000e+001 8.881784e-015
      vertex   -4.400000e+001 3.080000e+001 3.050000e+001
    endloop
  endfacet
  facet normal 0.000000e+000 1.000000e+000 -0.000000e+000
    outer loop
      vertex   -4.400000e+001 3.080000e+001 3.050000e+001
      vertex   -5.000000e+001 3.080000e+001 8.881784e-015
      vertex   -5.000000e+001 3.080000e+001 3.050000e+001
    endloop
  endfacet
  facet normal 0.000000e+000 1.000000e+000 -0.000000e+000
    outer loop
      vertex   -4.400000e+001 3.080000e+001 6.100000e+001
      vertex   -5.000000e+001 3.080000e+001 3.050000e+001
      vertex   -5.000000e+001 3.080000e+001 6.100000e+001
    endloop
  endfacet
  facet normal 0.000000e+000 1.000000e+000 0.000000e+000
    outer loop
      vertex   -4.400000e+001 3.080000e+001 6.100000e+001
      vertex   -4.400000e+001 3.080000e+001 3.050000e+001
      vertex   -5.000000e+001 3.080000e+001 3.050000e+001
    endloop
  endfacet
  facet normal 1.000000e+000 0.000000e+000 -0.000000e+000
    outer loop
      vertex   -4.400000e+001 2.830000e+001 8.881784e-015
      vertex   -4.400000e+001 3.080000e+001 8.881784e-015
      vertex   -4.400000e+001 2.830000e+001 3.050000e+001
    endloop
  endfacet
  facet normal 1.000000e+000 -0.000000e+000 0.000000e+000
    outer loop
      vertex   -4.400000e+001 2.830000e+001 3.050000e+001
      vertex   -4.400000e+001 3.080000e+001 8.881784e-015
      vertex   -4.400000e+001 3.080000e+001 3.050000e+001
    endloop
  endfacet
  facet normal 1.000000e+000 -0.000000e+000 0.000000e+000
    outer loop
      vertex   -4.400000e+001 2.830000e+001 6.100000e+001
      vertex   -4.400000e+001 3.080000e+001 3.050000e+001
      vertex   -4.400000e+001 3.080000e+001 6.100000e+001
    endloop
  endfacet
  facet normal 1.000000e+000 -0.000000e+000 0.000000e+000
    outer loop
      vertex   -4.400000e+001 2.830000e+001 6.100000e+001
      vertex   -4.400000e+001 2.830000e+001 3.050000e+001
      vertex   -4.400000e+001 3.080000e+001 3.050000e+001
    endloop
  endfacet
  facet normal 0.000000e+000 -1.000000e+000 0.000000e+000
    outer loop
      vertex   -5.000000e+001 2.830000e+001 8.881784e-015
      vertex   -4.400000e+001 2.830000e+001 8.881784e-015
      vertex   -5.000000e+001 2.830000e+001 3.050000e+001
    endloop
  endfacet
  facet normal 0.000000e+000 -1.000000e+000 0.000000e+000
    outer loop
      vertex   -5.000000e+001 2.830000e+001 3.050000e+001
      vertex   -4.400000e+001 2.830000e+001 8.881784e-015
      vertex   -4.400000e+001 2.830000e+001 3.050000e+001
    endloop
  endfacet
  facet normal 0.000000e+000 -1.000000e+000 0.000000e+000
    outer loop
      vertex   -5.000000e+001 2.830000e+001 6.100000e+001
      vertex   -4.400000e+001 2.830000e+001 3.050000e+001
      vertex   -4.400000e+001 2.830000e+001 6.100000e+001
    endloop
  endfacet
  facet normal 0.000000e+000 -1.000000e+000 0.000000e+000
    outer loop
      vertex   -5.000000e+001 2.830000e+001 6.100000e+001
      vertex   -5.000000e+001 2.830000e+001 3.050000e+001
      vertex   -4.400000e+001 2.830000e+001 3.050000e+001
    endloop
  endfacet
  facet normal 1.000000e+000 0.000000e+000 -0.000000e+000
    outer loop
      vertex   -5.000000e+001 2.500000e+001 8.881784e-015
      vertex   -5.000000e+001 2.830000e+001 8.881784e-015
      vertex   -5.000000e+001 2.500000e+001 3.050000e+001
    endloop
  endfacet
  facet normal 1.000000e+000 -0.000000e+000 0.000000e+000
    outer loop
      vertex   -5.000000e+001 2.500000e+001 3.050000e+001
      vertex   -5.000000e+001 2.830000e+001 8.881784e-015
      vertex   -5.000000e+001 2.830000e+001 3.050000e+001
    endloop
  endfacet
  facet normal 1.000000e+000 -0.000000e+000 0.000000e+000
    outer loop
      vertex   -5.000000e+001 2.500000e+001 6.100000e+001
      vertex   -5.000000e+001 2.830000e+001 3.050000e+001
      vertex   -5.000000e+001 2.830000e+001 6.100000e+001
    endloop
  endfacet
  facet normal 1.000000e+000 -0.000000e+000 0.000000e+000
    outer loop
      vertex   -5.000000e+001 2.500000e+001 6.100000e+001
      vertex   -5.000000e+001 2.500000e+001 3.050000e+001
      vertex   -5.000000e+001 2.830000e+001 3.050000e+001
    endloop
  endfacet
  facet normal 0.000000e+000 -1.000000e+000 0.000000e+000
    outer loop
      vertex   -9.100000e+001 2.500000e+001 8.881784e-015
      vertex   -8.630000e+001 2.500000e+001 8.881784e-015
      vertex   -9.100000e+001 2.500000e+001 3.050000e+001
    endloop
  endfacet
  facet normal 0.000000e+000 -1.000000e+000 0.000000e+000
    outer loop
      vertex   -9.100000e+001 2.500000e+001 3.050000e+001
      vertex   -8.630000e+001 2.500000e+001 8.881784e-015
      vertex   -8.630000e+001 2.500000e+001 3.050000e+001
    endloop
  endfacet
  facet normal 0.000000e+000 -1.000000e+000 0.000000e+000
    outer loop
      vertex   -9.100000e+001 2.500000e+001 6.100000e+001
      vertex   -8.630000e+001 2.500000e+001 3.050000e+001
      vertex   -8.630000e+001 2.500000e+001 6.100000e+001
    endloop
  endfacet
  facet normal 0.000000e+000 -1.000000e+000 0.000000e+000
    outer loop
      vertex   -9.100000e+001 2.500000e+001 6.100000e+001
      vertex   -9.100000e+001 2.500000e+001 3.050000e+001
      vertex   -8.630000e+001 2.500000e+001 3.050000e+001
    endloop
  endfacet
  facet normal -1.000000e+000 0.000000e+000 0.000000e+000
    outer loop
      vertex   -9.100000e+001 3.260000e+001 8.881784e-015
      vertex   -9.100000e+001 2.500000e+001 8.881784e-015
      vertex   -9.100000e+001 3.260000e+001 3.050000e+001
    endloop
  endfacet
  facet normal -1.000000e+000 -0.000000e+000 0.000000e+000
    outer loop
      vertex   -9.100000e+001 3.260000e+001 3.050000e+001
      vertex   -9.100000e+001 2.500000e+001 8.881784e-015
      vertex   -9.100000e+001 2.500000e+001 3.050000e+001
    endloop
  endfacet
  facet normal -1.000000e+000 -0.000000e+000 0.000000e+000
    outer loop
      vertex   -9.100000e+001 3.260000e+001 6.100000e+001
      vertex   -9.100000e+001 2.500000e+001 3.050000e+001
      vertex   -9.100000e+001 2.500000e+001 6.100000e+001
    endloop
  endfacet
  facet normal -1.000000e+000 -0.000000e+000 -0.000000e+000
    outer loop
      vertex   -9.100000e+001 3.260000e+001 6.100000e+001
      vertex   -9.100000e+001 3.260000e+001 3.050000e+001
      vertex   -9.100000e+001 2.500000e+001 3.050000e+001
    endloop
  endfacet
  facet normal 0.000000e+000 1.000000e+000 -0.000000e+000
    outer loop
      vertex   -8.200000e+001 3.260000e+001 8.881784e-015
      vertex   -9.100000e+001 3.260000e+001 8.881784e-015
      vertex   -8.200000e+001 3.260000e+001 3.050000e+001
    endloop
  endfacet
  facet normal 0.000000e+000 1.000000e+000 -0.000000e+000
    outer loop
      vertex   -8.200000e+001 3.260000e+001 3.050000e+001
      vertex   -9.100000e+001 3.260000e+001 8.881784e-015
      vertex   -9.100000e+001 3.260000e+001 3.050000e+001
    endloop
  endfacet
  facet normal 0.000000e+000 1.000000e+000 -0.000000e+000
    outer loop
      vertex   -8.200000e+001 3.260000e+001 6.100000e+001
      vertex   -9.100000e+001 3.260000e+001 3.050000e+001
      vertex   -9.100000e+001 3.260000e+001 6.100000e+001
    endloop
  endfacet
  facet normal 0.000000e+000 1.000000e+000 0.000000e+000
    outer loop
      vertex   -8.200000e+001 3.260000e+001 6.100000e+001
      vertex   -8.200000e+001 3.260000e+001 3.050000e+001
      vertex   -9.100000e+001 3.260000e+001 3.050000e+001
    endloop
  endfacet
  facet normal -1.000000e+000 0.000000e+000 0.000000e+000
    outer loop
      vertex   -8.200000e+001 3.990000e+001 8.881784e-015
      vertex   -8.200000e+001 3.260000e+001 8.881784e-015
      vertex   -8.200000e+001 3.990000e+001 3.050000e+001
    endloop
  endfacet
  facet normal -1.000000e+000 -0.000000e+000 0.000000e+000
    outer loop
      vertex   -8.200000e+001 3.990000e+001 3.050000e+001
      vertex   -8.200000e+001 3.260000e+001 8.881784e-015
      vertex   -8.200000e+001 3.260000e+001 3.050000e+001
    endloop
  endfacet
  facet normal -1.000000e+000 -0.000000e+000 0.000000e+000
    outer loop
      vertex   -8.200000e+001 3.990000e+001 6.100000e+001
      vertex   -8.200000e+001 3.260000e+001 3.050000e+001
      vertex   -8.200000e+001 3.260000e+001 6.100000e+001
    endloop
  endfacet
  facet normal -1.000000e+000 -0.000000e+000 -0.000000e+000
    outer loop
      vertex   -8.200000e+001 3.990000e+001 6.100000e+001
      vertex   -8.200000e+001 3.990000e+001 3.050000e+001
      vertex   -8.200000e+001 3.260000e+001 3.050000e+001
    endloop
  endfacet
  facet normal 0.000000e+000 1.000000e+000 -0.000000e+000
    outer loop
      vertex   -7.870000e+001 3.990000e+001 8.881784e-015
      vertex   -8.200000e+001 3.990000e+001 8.881784e-015
      vertex   -7.870000e+001 3.990000e+001 3.050000e+001
    endloop
  endfacet
  facet normal 0.000000e+000 1.000000e+000 -0.000000e+000
    outer loop
      vertex   -7.870000e+001 3.990000e+001 3.050000e+001
      vertex   -8.200000e+001 3.990000e+001 8.881784e-015
      vertex   -8.200000e+001 3.990000e+001 3.050000e+001
    endloop
  endfacet
  facet normal 0.000000e+000 1.000000e+000 -0.000000e+000
    outer loop
      vertex   -7.870000e+001 3.990000e+001 6.100000e+001
      vertex   -8.200000e+001 3.990000e+001 3.050000e+001
      vertex   -8.200000e+001 3.990000e+001 6.100000e+001
    endloop
  endfacet
  facet normal 0.000000e+000 1.000000e+000 0.000000e+000
    outer loop
      vertex   -7.870000e+001 3.990000e+001 6.100000e+001
      vertex   -7.870000e+001 3.990000e+001 3.050000e+001
      vertex   -8.200000e+001 3.990000e+001 3.050000e+001
    endloop
  endfacet
  facet normal 1.000000e+000 0.000000e+000 -0.000000e+000
    outer loop
      vertex   -7.870000e+001 3.840000e+001 8.881784e-015
      vertex   -7.870000e+001 3.990000e+001 8.881784e-015
      vertex   -7.870000e+001 3.840000e+001 3.050000e+001
    endloop
  endfacet
  facet normal 1.000000e+000 -0.000000e+000 0.000000e+000
    outer loop
      vertex   -7.870000e+001 3.840000e+001 3.050000e+001
      vertex   -7.870000e+001 3.990000e+001 8.881784e-015
      vertex   -7.870000e+001 3.990000e+001 3.050000e+001
    endloop
  endfacet
  facet normal 1.000000e+000 -0.000000e+000 0.000000e+000
    outer loop
      vertex   -7.870000e+001 3.840000e+001 6.100000e+001
      vertex   -7.870000e+001 3.990000e+001 3.050000e+001
      vertex   -7.870000e+001 3.990000e+001 6.100000e+001
    endloop
  endfacet
  facet normal 1.000000e+000 -0.000000e+000 0.000000e+000
    outer loop
      vertex   -7.870000e+001 3.840000e+001 6.100000e+001
      vertex   -7.870000e+001 3.840000e+001 3.050000e+001
      vertex   -7.870000e+001 3.990000e+001 3.050000e+001
    endloop
  endfacet
  facet normal 0.000000e+000 1.000000e+000 -0.000000e+000
    outer loop
      vertex   -7.270000e+001 3.840000e+001 8.881784e-015
      vertex   -7.870000e+001 3.840000e+001 8.881784e-015
      vertex   -7.270000e+001 3.840000e+001 3.050000e+001
    endloop
  endfacet
  facet normal 0.000000e+000 1.000000e+000 -0.000000e+000
    outer loop
      vertex   -7.270000e+001 3.840000e+001 3.050000e+001
      vertex   -7.870000e+001 3.840000e+001 8.881784e-015
      vertex   -7.870000e+001 3.840000e+001 3.050000e+001
    endloop
  endfacet
  facet normal 0.000000e+000 1.000000e+000 -0.000000e+000
    outer loop
      vertex   -7.270000e+001 3.840000e+001 6.100000e+001
      vertex   -7.870000e+001 3.840000e+001 3.050000e+001
      vertex   -7.870000e+001 3.840000e+001 6.100000e+001
    endloop
  endfacet
  facet normal 0.000000e+000 1.000000e+000 0.000000e+000
    outer loop
      vertex   -7.270000e+001 3.840000e+001 6.100000e+001
      vertex   -7.270000e+001 3.840000e+001 3.050000e+001
      vertex   -7.870000e+001 3.840000e+001 3.050000e+001
    endloop
  endfacet
  facet normal 1.000000e+000 0.000000e+000 -0.000000e+000
    outer loop
      vertex   -7.270000e+001 3.590000e+001 8.881784e-015
      vertex   -7.270000e+001 3.840000e+001 8.881784e-015
      vertex   -7.270000e+001 3.590000e+001 3.050000e+001
    endloop
  endfacet
  facet normal 1.000000e+000 -0.000000e+000 0.000000e+000
    outer loop
      vertex   -7.270000e+001 3.590000e+001 3.050000e+001
      vertex   -7.270000e+001 3.840000e+001 8.881784e-015
      vertex   -7.270000e+001 3.840000e+001 3.050000e+001
    endloop
  endfacet
  facet normal 1.000000e+000 -0.000000e+000 0.000000e+000
    outer loop
      vertex   -7.270000e+001 3.590000e+001 6.100000e+001
      vertex   -7.270000e+001 3.840000e+001 3.050000e+001
      vertex   -7.270000e+001 3.840000e+001 6.100000e+001
    endloop
  endfacet
  facet normal 1.000000e+000 -0.000000e+000 0.000000e+000
    outer loop
      vertex   -7.270000e+001 3.590000e+001 6.100000e+001
      vertex   -7.270000e+001 3.590000e+001 3.050000e+001
      vertex   -7.270000e+001 3.840000e+001 3.050000e+001
    endloop
  endfacet
  facet normal 0.000000e+000 -1.000000e+000 0.000000e+000
    outer loop
      vertex   -7.870000e+001 3.590000e+001 8.881784e-015
      vertex   -7.270000e+001 3.590000e+001 8.881784e-015
      vertex   -7.870000e+001 3.590000e+001 3.050000e+001
    endloop
  endfacet
  facet normal 0.000000e+000 -1.000000e+000 0.000000e+000
    outer loop
      vertex   -7.870000e+001 3.590000e+001 3.050000e+001
      vertex   -7.270000e+001 3.590000e+001 8.881784e-015
      vertex   -7.270000e+001 3.590000e+001 3.050000e+001
    endloop
  endfacet
  facet normal 0.000000e+000 -1.000000e+000 0.000000e+000
    outer loop
      vertex   -7.870000e+001 3.590000e+001 6.100000e+001
      vertex   -7.270000e+001 3.590000e+001 3.050000e+001
      vertex   -7.270000e+001 3.590000e+001 6.100000e+001
    endloop
  endfacet
  facet normal 0.000000e+000 -1.000000e+000 0.000000e+000
    outer loop
      vertex   -7.870000e+001 3.590000e+001 6.100000e+001
      vertex   -7.870000e+001 3.590000e+001 3.050000e+001
      vertex   -7.270000e+001 3.590000e+001 3.050000e+001
    endloop
  endfacet
  facet normal 0.000000e+000 0.000000e+000 -1.000000e+000
    outer loop
      vertex   -8.630000e+001 2.500000e+001 8.881784e-015
      vertex   -9.100000e+001 2.500000e+001 8.881784e-015
      vertex   -8.630000e+001 2.730000e+001 8.881784e-015
    endloop
  endfacet
  facet normal -0.000000e+000 0.000000e+000 -1.000000e+000
    outer loop
      vertex   -8.630000e+001 2.730000e+001 8.881784e-015
      vertex   -9.100000e+001 2.500000e+001 8.881784e-015
      vertex   -9.100000e+001 3.260000e+001 8.881784e-015
    endloop
  endfacet
  facet normal 0.000000e+000 0.000000e+000 -1.000000e+000
    outer loop
      vertex   -8.530000e+001 2.830000e+001 8.881784e-015
      vertex   -9.100000e+001 3.260000e+001 8.881784e-015
      vertex   -8.200000e+001 3.260000e+001 8.881784e-015
    endloop
  endfacet
  facet normal 0.000000e+000 0.000000e+000 -1.000000e+000
    outer loop
      vertex   -7.870000e+001 3.260000e+001 8.881784e-015
      vertex   -8.200000e+001 3.260000e+001 8.881784e-015
      vertex   -7.870000e+001 3.590000e+001 8.881784e-015
    endloop
  endfacet
  facet normal -0.000000e+000 0.000000e+000 -1.000000e+000
    outer loop
      vertex   -7.870000e+001 3.260000e+001 8.881784e-015
      vertex   -8.530000e+001 2.830000e+001 8.881784e-015
      vertex   -8.200000e+001 3.260000e+001 8.881784e-015
    endloop
  endfacet
  facet normal -0.000000e+000 -0.000000e+000 -1.000000e+000
    outer loop
      vertex   -7.870000e+001 3.260000e+001 8.881784e-015
      vertex   -5.430000e+001 2.830000e+001 8.881784e-015
      vertex   -8.530000e+001 2.830000e+001 8.881784e-015
    endloop
  endfacet
  facet normal 0.000000e+000 -0.000000e+000 -1.000000e+000
    outer loop
      vertex   -7.870000e+001 3.260000e+001 8.881784e-015
      vertex   -5.000000e+001 3.080000e+001 8.881784e-015
      vertex   -5.430000e+001 2.830000e+001 8.881784e-015
    endloop
  endfacet
  facet normal 0.000000e+000 0.000000e+000 -1.000000e+000
    outer loop
      vertex   -7.870000e+001 3.260000e+001 8.881784e-015
      vertex   -5.000000e+001 3.260000e+001 8.881784e-015
      vertex   -5.000000e+001 3.080000e+001 8.881784e-015
    endloop
  endfacet
  facet normal 0.000000e+000 0.000000e+000 -1.000000e+000
    outer loop
      vertex   -8.630000e+001 2.730000e+001 8.881784e-015
      vertex   -9.100000e+001 3.260000e+001 8.881784e-015
      vertex   -8.530000e+001 2.830000e+001 8.881784e-015
    endloop
  endfacet
  facet normal 0.000000e+000 0.000000e+000 -1.000000e+000
    outer loop
      vertex   -8.200000e+001 3.260000e+001 8.881784e-015
      vertex   -8.200000e+001 3.990000e+001 8.881784e-015
      vertex   -7.870000e+001 3.590000e+001 8.881784e-015
    endloop
  endfacet
  facet normal 0.000000e+000 0.000000e+000 -1.000000e+000
    outer loop
      vertex   -7.870000e+001 3.590000e+001 8.881784e-015
      vertex   -8.200000e+001 3.990000e+001 8.881784e-015
      vertex   -7.870000e+001 3.840000e+001 8.881784e-015
    endloop
  endfacet
  facet normal -0.000000e+000 0.000000e+000 -1.000000e+000
    outer loop
      vertex   -7.270000e+001 3.840000e+001 8.881784e-015
      vertex   -7.870000e+001 3.590000e+001 8.881784e-015
      vertex   -7.870000e+001 3.840000e+001 8.881784e-015
    endloop
  endfacet
  facet normal -0.000000e+000 -0.000000e+000 -1.000000e+000
    outer loop
      vertex   -7.270000e+001 3.840000e+001 8.881784e-015
      vertex   -7.270000e+001 3.590000e+001 8.881784e-015
      vertex   -7.870000e+001 3.590000e+001 8.881784e-015
    endloop
  endfacet
  facet normal 0.000000e+000 0.000000e+000 -1.000000e+000
    outer loop
      vertex   -8.200000e+001 3.990000e+001 8.881784e-015
      vertex   -7.870000e+001 3.990000e+001 8.881784e-015
      vertex   -7.870000e+001 3.840000e+001 8.881784e-015
    endloop
  endfacet
  facet normal 0.000000e+000 0.000000e+000 -1.000000e+000
    outer loop
      vertex   -5.430000e+001 2.830000e+001 8.881784e-015
      vertex   -5.000000e+001 3.080000e+001 8.881784e-015
      vertex   -5.000000e+001 2.830000e+001 8.881784e-015
    endloop
  endfacet
  facet normal 0.000000e+000 0.000000e+000 -1.000000e+000
    outer loop
      vertex   -5.330000e+001 2.730000e+001 8.881784e-015
      vertex   -5.000000e+001 2.830000e+001 8.881784e-015
      vertex   -5.000000e+001 2.500000e+001 8.881784e-015
    endloop
  endfacet
  facet normal 0.000000e+000 0.000000e+000 -1.000000e+000
    outer loop
      vertex   -5.330000e+001 2.500000e+001 8.881784e-015
      vertex   -5.330000e+001 2.730000e+001 8.881784e-015
      vertex   -5.000000e+001 2.500000e+001 8.881784e-015
    endloop
  endfacet
  facet normal 0.000000e+000 0.000000e+000 -1.000000e+000
    outer loop
      vertex   -4.400000e+001 2.830000e+001 8.881784e-015
      vertex   -5.000000e+001 2.830000e+001 8.881784e-015
      vertex   -4.400000e+001 3.080000e+001 8.881784e-015
    endloop
  endfacet
  facet normal -0.000000e+000 0.000000e+000 -1.000000e+000
    outer loop
      vertex   -4.400000e+001 3.080000e+001 8.881784e-015
      vertex   -5.000000e+001 2.830000e+001 8.881784e-015
      vertex   -5.000000e+001 3.080000e+001 8.881784e-015
    endloop
  endfacet
  facet normal 0.000000e+000 -0.000000e+000 -1.000000e+000
    outer loop
      vertex   -5.430000e+001 2.830000e+001 8.881784e-015
      vertex   -5.000000e+001 2.830000e+001 8.881784e-015
      vertex   -5.330000e+001 2.730000e+001 8.881784e-015
    endloop
  endfacet
endsolid
