solid ascii
  facet normal -9.888790e-001 -1.487222e-001 0.000000e+000
    outer loop
      vertex   -9.100000e+001 3.260000e+001 2.600000e+001
      vertex   -8.985700e+001 2.500000e+001 2.600000e+001
      vertex   -9.100000e+001 3.260000e+001 3.536067e+001
    endloop
  endfacet
  facet normal -9.888790e-001 -1.487222e-001 0.000000e+000
    outer loop
      vertex   -9.100000e+001 3.260000e+001 3.536067e+001
      vertex   -8.985700e+001 2.500000e+001 2.600000e+001
      vertex   -8.985700e+001 2.500000e+001 3.536067e+001
    endloop
  endfacet
  facet normal -0.000000e+000 -0.000000e+000 -1.000000e+000
    outer loop
      vertex   -9.100000e+001 3.260000e+001 3.536067e+001
      vertex   -8.985700e+001 2.500000e+001 3.536067e+001
      vertex   -9.100000e+001 2.500000e+001 3.536067e+001
    endloop
  endfacet
  facet normal 0.000000e+000 0.000000e+000 1.000000e+000
    outer loop
      vertex   -8.985700e+001 2.500000e+001 2.600000e+001
      vertex   -9.100000e+001 3.260000e+001 2.600000e+001
      vertex   -9.100000e+001 2.500000e+001 2.600000e+001
    endloop
  endfacet
  facet normal -1.000000e+000 0.000000e+000 0.000000e+000
    outer loop
      vertex   -9.100000e+001 2.500000e+001 8.881784e-015
      vertex   -9.100000e+001 2.500000e+001 2.600000e+001
      vertex   -9.100000e+001 3.260000e+001 2.109564e+001
    endloop
  endfacet
  facet normal -1.000000e+000 0.000000e+000 0.000000e+000
    outer loop
      vertex   -9.100000e+001 3.260000e+001 8.881784e-015
      vertex   -9.100000e+001 2.500000e+001 8.881784e-015
      vertex   -9.100000e+001 3.260000e+001 2.109564e+001
    endloop
  endfacet
  facet normal -1.000000e+000 0.000000e+000 -0.000000e+000
    outer loop
      vertex   -9.100000e+001 3.260000e+001 3.536067e+001
      vertex   -9.100000e+001 3.505000e+001 3.745436e+001
      vertex   -9.100000e+001 3.260000e+001 2.600000e+001
    endloop
  endfacet
  facet normal -1.000000e+000 0.000000e+000 0.000000e+000
    outer loop
      vertex   -9.100000e+001 3.260000e+001 3.536067e+001
      vertex   -9.100000e+001 3.260000e+001 3.990436e+001
      vertex   -9.100000e+001 3.505000e+001 3.745436e+001
    endloop
  endfacet
  facet normal -1.000000e+000 0.000000e+000 0.000000e+000
    outer loop
      vertex   -9.100000e+001 3.260000e+001 3.536067e+001
      vertex   -9.100000e+001 2.500000e+001 3.536067e+001
      vertex   -9.100000e+001 3.260000e+001 3.990436e+001
    endloop
  endfacet
  facet normal -1.000000e+000 -0.000000e+000 0.000000e+000
    outer loop
      vertex   -9.100000e+001 3.260000e+001 3.990436e+001
      vertex   -9.100000e+001 2.500000e+001 3.536067e+001
      vertex   -9.100000e+001 2.500000e+001 6.100000e+001
    endloop
  endfacet
  facet normal -1.000000e+000 -0.000000e+000 -0.000000e+000
    outer loop
      vertex   -9.100000e+001 3.260000e+001 6.100000e+001
      vertex   -9.100000e+001 3.260000e+001 3.990436e+001
      vertex   -9.100000e+001 2.500000e+001 6.100000e+001
    endloop
  endfacet
  facet normal -1.000000e+000 -0.000000e+000 -0.000000e+000
    outer loop
      vertex   -9.100000e+001 3.505000e+001 3.745436e+001
      vertex   -9.100000e+001 3.505000e+001 2.354564e+001
      vertex   -9.100000e+001 3.260000e+001 2.600000e+001
    endloop
  endfacet
  facet normal -1.000000e+000 0.000000e+000 -0.000000e+000
    outer loop
      vertex   -9.100000e+001 3.260000e+001 2.600000e+001
      vertex   -9.100000e+001 3.505000e+001 2.354564e+001
      vertex   -9.100000e+001 3.260000e+001 2.109564e+001
    endloop
  endfacet
  facet normal -1.000000e+000 0.000000e+000 0.000000e+000
    outer loop
      vertex   -9.100000e+001 2.500000e+001 2.600000e+001
      vertex   -9.100000e+001 3.260000e+001 2.600000e+001
      vertex   -9.100000e+001 3.260000e+001 2.109564e+001
    endloop
  endfacet
  facet normal 1.267505e-016 7.071068e-001 -7.071068e-001
    outer loop
      vertex   -8.200000e+001 3.260000e+001 2.109564e+001
      vertex   -9.100000e+001 3.505000e+001 2.354564e+001
      vertex   -8.200000e+001 3.700436e+001 2.550000e+001
    endloop
  endfacet
  facet normal 0.000000e+000 7.071068e-001 -7.071068e-001
    outer loop
      vertex   -8.200000e+001 3.260000e+001 2.109564e+001
      vertex   -9.100000e+001 3.260000e+001 2.109564e+001
      vertex   -9.100000e+001 3.505000e+001 2.354564e+001
    endloop
  endfacet
  facet normal 1.632210e-015 7.071068e-001 -7.071068e-001
    outer loop
      vertex   -9.100000e+001 3.505000e+001 2.354564e+001
      vertex   -9.097131e+001 3.538757e+001 2.388320e+001
      vertex   -8.200000e+001 3.700436e+001 2.550000e+001
    endloop
  endfacet
  facet normal 0.000000e+000 7.071068e-001 -7.071068e-001
    outer loop
      vertex   -8.200000e+001 3.700436e+001 2.550000e+001
      vertex   -9.097131e+001 3.538757e+001 2.388320e+001
      vertex   -8.942481e+001 3.700436e+001 2.550000e+001
    endloop
  endfacet
  facet normal -3.892570e-014 7.071068e-001 -7.071068e-001
    outer loop
      vertex   -8.942481e+001 3.700436e+001 2.550000e+001
      vertex   -9.097131e+001 3.538757e+001 2.388320e+001
      vertex   -9.093563e+001 3.555332e+001 2.404895e+001
    endloop
  endfacet
  facet normal -1.815092e-015 7.071068e-001 -7.071068e-001
    outer loop
      vertex   -9.088605e+001 3.571545e+001 2.421108e+001
      vertex   -8.942481e+001 3.700436e+001 2.550000e+001
      vertex   -9.093563e+001 3.555332e+001 2.404895e+001
    endloop
  endfacet
  facet normal 4.095756e-014 7.071068e-001 -7.071068e-001
    outer loop
      vertex   -9.088605e+001 3.571545e+001 2.421108e+001
      vertex   -9.082291e+001 3.587280e+001 2.436843e+001
      vertex   -8.942481e+001 3.700436e+001 2.550000e+001
    endloop
  endfacet
  facet normal -1.971122e-014 7.071068e-001 -7.071068e-001
    outer loop
      vertex   -8.942481e+001 3.700436e+001 2.550000e+001
      vertex   -9.082291e+001 3.587280e+001 2.436843e+001
      vertex   -9.074667e+001 3.602423e+001 2.451987e+001
    endloop
  endfacet
  facet normal -2.342318e-014 7.071068e-001 -7.071068e-001
    outer loop
      vertex   -9.065788e+001 3.616867e+001 2.466431e+001
      vertex   -8.942481e+001 3.700436e+001 2.550000e+001
      vertex   -9.074667e+001 3.602423e+001 2.451987e+001
    endloop
  endfacet
  facet normal 2.090385e-014 7.071068e-001 -7.071068e-001
    outer loop
      vertex   -9.065788e+001 3.616867e+001 2.466431e+001
      vertex   -9.055718e+001 3.630507e+001 2.480070e+001
      vertex   -8.942481e+001 3.700436e+001 2.550000e+001
    endloop
  endfacet
  facet normal 2.661792e-014 7.071068e-001 -7.071068e-001
    outer loop
      vertex   -8.942481e+001 3.700436e+001 2.550000e+001
      vertex   -9.055718e+001 3.630507e+001 2.480070e+001
      vertex   -9.044529e+001 3.643244e+001 2.492808e+001
    endloop
  endfacet
  facet normal -5.190371e-014 7.071068e-001 -7.071068e-001
    outer loop
      vertex   -9.032300e+001 3.654989e+001 2.504552e+001
      vertex   -8.942481e+001 3.700436e+001 2.550000e+001
      vertex   -9.044529e+001 3.643244e+001 2.492808e+001
    endloop
  endfacet
  facet normal 5.601954e-014 7.071068e-001 -7.071068e-001
    outer loop
      vertex   -9.032300e+001 3.654989e+001 2.504552e+001
      vertex   -9.019122e+001 3.665655e+001 2.515219e+001
      vertex   -8.942481e+001 3.700436e+001 2.550000e+001
    endloop
  endfacet
  facet normal -6.254244e-014 7.071068e-001 -7.071068e-001
    outer loop
      vertex   -8.942481e+001 3.700436e+001 2.550000e+001
      vertex   -9.019122e+001 3.665655e+001 2.515219e+001
      vertex   -9.005087e+001 3.675167e+001 2.524730e+001
    endloop
  endfacet
  facet normal 2.939803e-014 7.071068e-001 -7.071068e-001
    outer loop
      vertex   -8.990297e+001 3.683456e+001 2.533019e+001
      vertex   -8.942481e+001 3.700436e+001 2.550000e+001
      vertex   -9.005087e+001 3.675167e+001 2.524730e+001
    endloop
  endfacet
  facet normal 5.858480e-014 7.071068e-001 -7.071068e-001
    outer loop
      vertex   -8.990297e+001 3.683456e+001 2.533019e+001
      vertex   -8.974858e+001 3.690462e+001 2.540026e+001
      vertex   -8.942481e+001 3.700436e+001 2.550000e+001
    endloop
  endfacet
  facet normal -4.433718e-014 7.071068e-001 -7.071068e-001
    outer loop
      vertex   -8.942481e+001 3.700436e+001 2.550000e+001
      vertex   -8.974858e+001 3.690462e+001 2.540026e+001
      vertex   -8.958881e+001 3.696136e+001 2.545700e+001
    endloop
  endfacet
  facet normal -1.000000e+000 0.000000e+000 -0.000000e+000
    outer loop
      vertex   -8.200000e+001 3.260000e+001 2.109564e+001
      vertex   -8.200000e+001 3.700436e+001 2.550000e+001
      vertex   -8.200000e+001 3.260000e+001 8.881784e-015
    endloop
  endfacet
  facet normal -1.000000e+000 0.000000e+000 0.000000e+000
    outer loop
      vertex   -8.200000e+001 3.260000e+001 8.881784e-015
      vertex   -8.200000e+001 3.700436e+001 2.550000e+001
      vertex   -8.200000e+001 3.990000e+001 8.881784e-015
    endloop
  endfacet
  facet normal -1.000000e+000 0.000000e+000 0.000000e+000
    outer loop
      vertex   -8.200000e+001 3.990000e+001 8.881784e-015
      vertex   -8.200000e+001 3.700436e+001 2.550000e+001
      vertex   -8.200000e+001 3.705000e+001 2.550000e+001
    endloop
  endfacet
  facet normal -1.000000e+000 -0.000000e+000 0.000000e+000
    outer loop
      vertex   -8.200000e+001 3.990000e+001 3.050000e+001
      vertex   -8.200000e+001 3.705000e+001 2.550000e+001
      vertex   -8.200000e+001 3.705000e+001 3.550000e+001
    endloop
  endfacet
  facet normal -1.000000e+000 -0.000000e+000 0.000000e+000
    outer loop
      vertex   -8.200000e+001 3.990000e+001 6.100000e+001
      vertex   -8.200000e+001 3.705000e+001 3.550000e+001
      vertex   -8.200000e+001 3.700436e+001 3.550000e+001
    endloop
  endfacet
  facet normal -1.000000e+000 -0.000000e+000 -0.000000e+000
    outer loop
      vertex   -8.200000e+001 3.260000e+001 6.100000e+001
      vertex   -8.200000e+001 3.700436e+001 3.550000e+001
      vertex   -8.200000e+001 3.260000e+001 3.990436e+001
    endloop
  endfacet
  facet normal -1.000000e+000 0.000000e+000 -0.000000e+000
    outer loop
      vertex   -8.200000e+001 3.260000e+001 6.100000e+001
      vertex   -8.200000e+001 3.990000e+001 6.100000e+001
      vertex   -8.200000e+001 3.700436e+001 3.550000e+001
    endloop
  endfacet
  facet normal -1.000000e+000 0.000000e+000 0.000000e+000
    outer loop
      vertex   -8.200000e+001 3.990000e+001 8.881784e-015
      vertex   -8.200000e+001 3.705000e+001 2.550000e+001
      vertex   -8.200000e+001 3.990000e+001 3.050000e+001
    endloop
  endfacet
  facet normal -1.000000e+000 0.000000e+000 0.000000e+000
    outer loop
      vertex   -8.200000e+001 3.990000e+001 3.050000e+001
      vertex   -8.200000e+001 3.705000e+001 3.550000e+001
      vertex   -8.200000e+001 3.990000e+001 6.100000e+001
    endloop
  endfacet
  facet normal -0.000000e+000 -0.000000e+000 -1.000000e+000
    outer loop
      vertex   -8.200000e+001 3.705000e+001 2.550000e+001
      vertex   -8.200000e+001 3.700436e+001 2.550000e+001
      vertex   -8.900000e+001 3.705000e+001 2.550000e+001
    endloop
  endfacet
  facet normal -0.000000e+000 -0.000000e+000 -1.000000e+000
    outer loop
      vertex   -8.900000e+001 3.705000e+001 2.550000e+001
      vertex   -8.200000e+001 3.700436e+001 2.550000e+001
      vertex   -8.942481e+001 3.700436e+001 2.550000e+001
    endloop
  endfacet
  facet normal 0.000000e+000 -0.000000e+000 -1.000000e+000
    outer loop
      vertex   -8.928441e+001 3.702967e+001 2.550000e+001
      vertex   -8.900000e+001 3.705000e+001 2.550000e+001
      vertex   -8.942481e+001 3.700436e+001 2.550000e+001
    endloop
  endfacet
  facet normal 0.000000e+000 0.000000e+000 -1.000000e+000
    outer loop
      vertex   -8.928441e+001 3.702967e+001 2.550000e+001
      vertex   -8.914257e+001 3.704491e+001 2.550000e+001
      vertex   -8.900000e+001 3.705000e+001 2.550000e+001
    endloop
  endfacet
  facet normal -0.000000e+000 7.071068e-001 7.071068e-001
    outer loop
      vertex   -9.100000e+001 3.260000e+001 3.990436e+001
      vertex   -8.200000e+001 3.260000e+001 3.990436e+001
      vertex   -9.100000e+001 3.505000e+001 3.745436e+001
    endloop
  endfacet
  facet normal -3.168761e-016 7.071068e-001 7.071068e-001
    outer loop
      vertex   -9.100000e+001 3.505000e+001 3.745436e+001
      vertex   -8.200000e+001 3.260000e+001 3.990436e+001
      vertex   -8.200000e+001 3.700436e+001 3.550000e+001
    endloop
  endfacet
  facet normal 0.000000e+000 7.071068e-001 7.071068e-001
    outer loop
      vertex   -9.097131e+001 3.538757e+001 3.711680e+001
      vertex   -8.200000e+001 3.700436e+001 3.550000e+001
      vertex   -8.942481e+001 3.700436e+001 3.550000e+001
    endloop
  endfacet
  facet normal -4.537731e-015 7.071068e-001 7.071068e-001
    outer loop
      vertex   -9.093563e+001 3.555332e+001 3.695105e+001
      vertex   -8.942481e+001 3.700436e+001 3.550000e+001
      vertex   -9.088605e+001 3.571545e+001 3.678892e+001
    endloop
  endfacet
  facet normal -4.347032e-015 7.071068e-001 7.071068e-001
    outer loop
      vertex   -9.093563e+001 3.555332e+001 3.695105e+001
      vertex   -9.097131e+001 3.538757e+001 3.711680e+001
      vertex   -8.942481e+001 3.700436e+001 3.550000e+001
    endloop
  endfacet
  facet normal -5.265193e-016 7.071068e-001 7.071068e-001
    outer loop
      vertex   -9.100000e+001 3.505000e+001 3.745436e+001
      vertex   -8.200000e+001 3.700436e+001 3.550000e+001
      vertex   -9.097131e+001 3.538757e+001 3.711680e+001
    endloop
  endfacet
  facet normal -1.171409e-013 7.071068e-001 7.071068e-001
    outer loop
      vertex   -8.958881e+001 3.696136e+001 3.554300e+001
      vertex   -8.974858e+001 3.690462e+001 3.559974e+001
      vertex   -8.942481e+001 3.700436e+001 3.550000e+001
    endloop
  endfacet
  facet normal -4.831563e-014 7.071068e-001 7.071068e-001
    outer loop
      vertex   -8.942481e+001 3.700436e+001 3.550000e+001
      vertex   -8.974858e+001 3.690462e+001 3.559974e+001
      vertex   -8.990297e+001 3.683456e+001 3.566981e+001
    endloop
  endfacet
  facet normal -2.872222e-014 7.071068e-001 7.071068e-001
    outer loop
      vertex   -9.005087e+001 3.675167e+001 3.575270e+001
      vertex   -8.942481e+001 3.700436e+001 3.550000e+001
      vertex   -8.990297e+001 3.683456e+001 3.566981e+001
    endloop
  endfacet
  facet normal -1.976097e-014 7.071068e-001 7.071068e-001
    outer loop
      vertex   -9.005087e+001 3.675167e+001 3.575270e+001
      vertex   -9.019122e+001 3.665655e+001 3.584781e+001
      vertex   -8.942481e+001 3.700436e+001 3.550000e+001
    endloop
  endfacet
  facet normal -1.489300e-014 7.071068e-001 7.071068e-001
    outer loop
      vertex   -8.942481e+001 3.700436e+001 3.550000e+001
      vertex   -9.019122e+001 3.665655e+001 3.584781e+001
      vertex   -9.032300e+001 3.654989e+001 3.595448e+001
    endloop
  endfacet
  facet normal -5.740865e-014 7.071068e-001 7.071068e-001
    outer loop
      vertex   -9.044529e+001 3.643244e+001 3.607192e+001
      vertex   -8.942481e+001 3.700436e+001 3.550000e+001
      vertex   -9.032300e+001 3.654989e+001 3.595448e+001
    endloop
  endfacet
  facet normal 4.357011e-014 7.071068e-001 7.071068e-001
    outer loop
      vertex   -9.044529e+001 3.643244e+001 3.607192e+001
      vertex   -9.055718e+001 3.630507e+001 3.619930e+001
      vertex   -8.942481e+001 3.700436e+001 3.550000e+001
    endloop
  endfacet
  facet normal -8.174689e-015 7.071068e-001 7.071068e-001
    outer loop
      vertex   -8.942481e+001 3.700436e+001 3.550000e+001
      vertex   -9.055718e+001 3.630507e+001 3.619930e+001
      vertex   -9.065788e+001 3.616867e+001 3.633569e+001
    endloop
  endfacet
  facet normal -6.800278e-015 7.071068e-001 7.071068e-001
    outer loop
      vertex   -9.074667e+001 3.602423e+001 3.648013e+001
      vertex   -8.942481e+001 3.700436e+001 3.550000e+001
      vertex   -9.065788e+001 3.616867e+001 3.633569e+001
    endloop
  endfacet
  facet normal -6.101091e-015 7.071068e-001 7.071068e-001
    outer loop
      vertex   -9.074667e+001 3.602423e+001 3.648013e+001
      vertex   -9.082291e+001 3.587280e+001 3.663157e+001
      vertex   -8.942481e+001 3.700436e+001 3.550000e+001
    endloop
  endfacet
  facet normal -5.416968e-015 7.071068e-001 7.071068e-001
    outer loop
      vertex   -8.942481e+001 3.700436e+001 3.550000e+001
      vertex   -9.082291e+001 3.587280e+001 3.663157e+001
      vertex   -9.088605e+001 3.571545e+001 3.678892e+001
    endloop
  endfacet
  facet normal -2.537441e-001 9.672713e-001 -4.557183e-004
    outer loop
      vertex   -8.958881e+001 3.696136e+001 3.554300e+001
      vertex   -8.942481e+001 3.700436e+001 3.550000e+001
      vertex   -8.937977e+001 3.701361e+001 3.005291e+001
    endloop
  endfacet
  facet normal -2.724615e-001 9.621656e-001 1.453786e-003
    outer loop
      vertex   -8.970616e+001 3.692119e+001 3.005291e+001
      vertex   -8.937977e+001 3.701361e+001 3.005291e+001
      vertex   -8.958881e+001 3.696136e+001 2.545700e+001
    endloop
  endfacet
  facet normal -3.345514e-001 9.423774e-001 -3.045149e-004
    outer loop
      vertex   -8.974858e+001 3.690462e+001 2.540026e+001
      vertex   -8.970616e+001 3.692119e+001 3.005291e+001
      vertex   -8.958881e+001 3.696136e+001 2.545700e+001
    endloop
  endfacet
  facet normal -4.134565e-001 9.105237e-001 5.283394e-004
    outer loop
      vertex   -8.974858e+001 3.690462e+001 2.540026e+001
      vertex   -8.990297e+001 3.683456e+001 2.533019e+001
      vertex   -8.970616e+001 3.692119e+001 3.005291e+001
    endloop
  endfacet
  facet normal -4.311492e-001 9.022795e-001 1.416880e-003
    outer loop
      vertex   -8.970616e+001 3.692119e+001 3.005291e+001
      vertex   -8.990297e+001 3.683456e+001 2.533019e+001
      vertex   -9.001223e+001 3.677493e+001 3.005291e+001
    endloop
  endfacet
  facet normal -4.887928e-001 8.723999e-001 2.471850e-004
    outer loop
      vertex   -8.990297e+001 3.683456e+001 3.566981e+001
      vertex   -9.001223e+001 3.677493e+001 3.005291e+001
      vertex   -9.005087e+001 3.675167e+001 3.575270e+001
    endloop
  endfacet
  facet normal -4.311493e-001 9.022798e-001 -1.191320e-003
    outer loop
      vertex   -8.990297e+001 3.683456e+001 3.566981e+001
      vertex   -8.970616e+001 3.692119e+001 3.005291e+001
      vertex   -9.001223e+001 3.677493e+001 3.005291e+001
    endloop
  endfacet
  facet normal -4.134244e-001 9.105384e-001 -4.428784e-004
    outer loop
      vertex   -8.990297e+001 3.683456e+001 3.566981e+001
      vertex   -8.974858e+001 3.690462e+001 3.559974e+001
      vertex   -8.970616e+001 3.692119e+001 3.005291e+001
    endloop
  endfacet
  facet normal -3.345670e-001 9.423719e-001 2.552901e-004
    outer loop
      vertex   -8.970616e+001 3.692119e+001 3.005291e+001
      vertex   -8.974858e+001 3.690462e+001 3.559974e+001
      vertex   -8.958881e+001 3.696136e+001 3.554300e+001
    endloop
  endfacet
  facet normal -2.724616e-001 9.621659e-001 -1.217006e-003
    outer loop
      vertex   -8.937977e+001 3.701361e+001 3.005291e+001
      vertex   -8.970616e+001 3.692119e+001 3.005291e+001
      vertex   -8.958881e+001 3.696136e+001 3.554300e+001
    endloop
  endfacet
  facet normal -1.774180e-001 9.841356e-001 2.040713e-004
    outer loop
      vertex   -8.942481e+001 3.700436e+001 3.550000e+001
      vertex   -8.928441e+001 3.702967e+001 3.550000e+001
      vertex   -8.937977e+001 3.701361e+001 3.005291e+001
    endloop
  endfacet
  facet normal -1.068131e-001 9.942785e-001 -1.061802e-003
    outer loop
      vertex   -8.937977e+001 3.701361e+001 3.005291e+001
      vertex   -8.928441e+001 3.702967e+001 3.550000e+001
      vertex   -8.914257e+001 3.704491e+001 3.550000e+001
    endloop
  endfacet
  facet normal -3.566488e-002 9.993638e-001 1.952824e-004
    outer loop
      vertex   -8.904245e+001 3.704955e+001 3.005291e+001
      vertex   -8.914257e+001 3.704491e+001 3.550000e+001
      vertex   -8.900000e+001 3.705000e+001 3.550000e+001
    endloop
  endfacet
  facet normal -1.061329e-002 9.999437e-001 0.000000e+000
    outer loop
      vertex   -8.900000e+001 3.705000e+001 2.550000e+001
      vertex   -8.904245e+001 3.704955e+001 3.005291e+001
      vertex   -8.900000e+001 3.705000e+001 3.550000e+001
    endloop
  endfacet
  facet normal -3.566488e-002 9.993638e-001 -2.336354e-004
    outer loop
      vertex   -8.900000e+001 3.705000e+001 2.550000e+001
      vertex   -8.914257e+001 3.704491e+001 2.550000e+001
      vertex   -8.904245e+001 3.704955e+001 3.005291e+001
    endloop
  endfacet
  facet normal -1.059356e-001 9.943721e-001 1.316696e-003
    outer loop
      vertex   -8.904245e+001 3.704955e+001 3.005291e+001
      vertex   -8.914257e+001 3.704491e+001 2.550000e+001
      vertex   -8.937977e+001 3.701361e+001 3.005291e+001
    endloop
  endfacet
  facet normal -1.059357e-001 9.943724e-001 -1.100550e-003
    outer loop
      vertex   -8.914257e+001 3.704491e+001 3.550000e+001
      vertex   -8.904245e+001 3.704955e+001 3.005291e+001
      vertex   -8.937977e+001 3.701361e+001 3.005291e+001
    endloop
  endfacet
  facet normal -1.068131e-001 9.942783e-001 1.270337e-003
    outer loop
      vertex   -8.914257e+001 3.704491e+001 2.550000e+001
      vertex   -8.928441e+001 3.702967e+001 2.550000e+001
      vertex   -8.937977e+001 3.701361e+001 3.005291e+001
    endloop
  endfacet
  facet normal -1.774180e-001 9.841355e-001 -2.441504e-004
    outer loop
      vertex   -8.937977e+001 3.701361e+001 3.005291e+001
      vertex   -8.928441e+001 3.702967e+001 2.550000e+001
      vertex   -8.942481e+001 3.700436e+001 2.550000e+001
    endloop
  endfacet
  facet normal -2.537661e-001 9.672655e-001 5.454499e-004
    outer loop
      vertex   -8.958881e+001 3.696136e+001 2.545700e+001
      vertex   -8.937977e+001 3.701361e+001 3.005291e+001
      vertex   -8.942481e+001 3.700436e+001 2.550000e+001
    endloop
  endfacet
  facet normal -4.887731e-001 8.724109e-001 -2.933907e-004
    outer loop
      vertex   -8.990297e+001 3.683456e+001 2.533019e+001
      vertex   -9.005087e+001 3.675167e+001 2.524730e+001
      vertex   -9.001223e+001 3.677493e+001 3.005291e+001
    endloop
  endfacet
  facet normal -5.612603e-001 8.276392e-001 5.061487e-004
    outer loop
      vertex   -9.001223e+001 3.677493e+001 3.005291e+001
      vertex   -9.005087e+001 3.675167e+001 2.524730e+001
      vertex   -9.019122e+001 3.665655e+001 2.515219e+001
    endloop
  endfacet
  facet normal -6.289837e-001 7.774184e-001 -2.800889e-004
    outer loop
      vertex   -9.028919e+001 3.657905e+001 3.005291e+001
      vertex   -9.019122e+001 3.665655e+001 2.515219e+001
      vertex   -9.032300e+001 3.654989e+001 2.504552e+001
    endloop
  endfacet
  facet normal -6.929350e-001 7.209999e-001 4.804531e-004
    outer loop
      vertex   -9.044529e+001 3.643244e+001 2.492808e+001
      vertex   -9.028919e+001 3.657905e+001 3.005291e+001
      vertex   -9.032300e+001 3.654989e+001 2.504552e+001
    endloop
  endfacet
  facet normal -7.071062e-001 7.071062e-001 1.309569e-003
    outer loop
      vertex   -9.044529e+001 3.643244e+001 2.492808e+001
      vertex   -9.052905e+001 3.633919e+001 3.005291e+001
      vertex   -9.028919e+001 3.657905e+001 3.005291e+001
    endloop
  endfacet
  facet normal -7.511597e-001 6.601204e-001 -2.655191e-004
    outer loop
      vertex   -9.044529e+001 3.643244e+001 2.492808e+001
      vertex   -9.055718e+001 3.630507e+001 2.480070e+001
      vertex   -9.052905e+001 3.633919e+001 3.005291e+001
    endloop
  endfacet
  facet normal -8.047051e-001 5.936746e-001 4.528702e-004
    outer loop
      vertex   -9.052905e+001 3.633919e+001 3.005291e+001
      vertex   -9.055718e+001 3.630507e+001 2.480070e+001
      vertex   -9.065788e+001 3.616867e+001 2.466431e+001
    endloop
  endfacet
  facet normal -8.517930e-001 5.238784e-001 -2.505102e-004
    outer loop
      vertex   -9.072493e+001 3.606223e+001 3.005291e+001
      vertex   -9.065788e+001 3.616867e+001 2.466431e+001
      vertex   -9.074667e+001 3.602423e+001 2.451987e+001
    endloop
  endfacet
  facet normal -8.933693e-001 4.493229e-001 4.248433e-004
    outer loop
      vertex   -9.082291e+001 3.587280e+001 2.436843e+001
      vertex   -9.072493e+001 3.606223e+001 3.005291e+001
      vertex   -9.074667e+001 3.602423e+001 2.451987e+001
    endloop
  endfacet
  facet normal -9.022798e-001 4.311493e-001 1.184055e-003
    outer loop
      vertex   -9.082291e+001 3.587280e+001 2.436843e+001
      vertex   -9.087119e+001 3.575616e+001 3.005291e+001
      vertex   -9.072493e+001 3.606223e+001 3.005291e+001
    endloop
  endfacet
  facet normal -9.279925e-001 3.725989e-001 -2.357351e-004
    outer loop
      vertex   -9.082291e+001 3.587280e+001 2.436843e+001
      vertex   -9.088605e+001 3.571545e+001 2.421108e+001
      vertex   -9.087119e+001 3.575616e+001 3.005291e+001
    endloop
  endfacet
  facet normal -9.563907e-001 2.920900e-001 3.975194e-004
    outer loop
      vertex   -9.087119e+001 3.575616e+001 3.005291e+001
      vertex   -9.088605e+001 3.571545e+001 2.421108e+001
      vertex   -9.093563e+001 3.555332e+001 2.404895e+001
    endloop
  endfacet
  facet normal -9.775677e-001 2.106215e-001 -2.216870e-004
    outer loop
      vertex   -9.096361e+001 3.542977e+001 3.005291e+001
      vertex   -9.093563e+001 3.555332e+001 2.404895e+001
      vertex   -9.097131e+001 3.538757e+001 2.388320e+001
    endloop
  endfacet
  facet normal -9.963655e-001 8.517919e-002 -4.866849e-004
    outer loop
      vertex   -9.099955e+001 3.509245e+001 3.005291e+001
      vertex   -9.097131e+001 3.538757e+001 2.388320e+001
      vertex   -9.100000e+001 3.505000e+001 2.354564e+001
    endloop
  endfacet
  facet normal -9.999437e-001 1.061329e-002 0.000000e+000
    outer loop
      vertex   -9.100000e+001 3.505000e+001 3.745436e+001
      vertex   -9.099955e+001 3.509245e+001 3.005291e+001
      vertex   -9.100000e+001 3.505000e+001 2.354564e+001
    endloop
  endfacet
  facet normal -9.963706e-001 8.512048e-002 4.275507e-004
    outer loop
      vertex   -9.100000e+001 3.505000e+001 3.745436e+001
      vertex   -9.097131e+001 3.538757e+001 3.711680e+001
      vertex   -9.099955e+001 3.509245e+001 3.005291e+001
    endloop
  endfacet
  facet normal -9.943729e-001 1.059357e-001 -4.500584e-004
    outer loop
      vertex   -9.099955e+001 3.509245e+001 3.005291e+001
      vertex   -9.097131e+001 3.538757e+001 3.711680e+001
      vertex   -9.096361e+001 3.542977e+001 3.005291e+001
    endloop
  endfacet
  facet normal -9.943728e-001 1.059357e-001 5.152858e-004
    outer loop
      vertex   -9.097131e+001 3.538757e+001 2.388320e+001
      vertex   -9.099955e+001 3.509245e+001 3.005291e+001
      vertex   -9.096361e+001 3.542977e+001 3.005291e+001
    endloop
  endfacet
  facet normal -5.774335e-001 8.164366e-001 1.367445e-003
    outer loop
      vertex   -9.001223e+001 3.677493e+001 3.005291e+001
      vertex   -9.019122e+001 3.665655e+001 2.515219e+001
      vertex   -9.028919e+001 3.657905e+001 3.005291e+001
    endloop
  endfacet
  facet normal -6.290046e-001 7.774016e-001 2.374481e-004
    outer loop
      vertex   -9.019122e+001 3.665655e+001 3.584781e+001
      vertex   -9.028919e+001 3.657905e+001 3.005291e+001
      vertex   -9.032300e+001 3.654989e+001 3.595448e+001
    endloop
  endfacet
  facet normal -5.774337e-001 8.164368e-001 -1.156442e-003
    outer loop
      vertex   -9.019122e+001 3.665655e+001 3.584781e+001
      vertex   -9.001223e+001 3.677493e+001 3.005291e+001
      vertex   -9.028919e+001 3.657905e+001 3.005291e+001
    endloop
  endfacet
  facet normal -5.612233e-001 8.276643e-001 -4.263907e-004
    outer loop
      vertex   -9.019122e+001 3.665655e+001 3.584781e+001
      vertex   -9.005087e+001 3.675167e+001 3.575270e+001
      vertex   -9.001223e+001 3.677493e+001 3.005291e+001
    endloop
  endfacet
  facet normal -8.164367e-001 5.774336e-001 1.247276e-003
    outer loop
      vertex   -9.052905e+001 3.633919e+001 3.005291e+001
      vertex   -9.065788e+001 3.616867e+001 2.466431e+001
      vertex   -9.072493e+001 3.606223e+001 3.005291e+001
    endloop
  endfacet
  facet normal -8.518087e-001 5.238529e-001 2.154548e-004
    outer loop
      vertex   -9.065788e+001 3.616867e+001 3.633569e+001
      vertex   -9.072493e+001 3.606223e+001 3.005291e+001
      vertex   -9.074667e+001 3.602423e+001 3.648013e+001
    endloop
  endfacet
  facet normal -8.164369e-001 5.774337e-001 -1.069761e-003
    outer loop
      vertex   -9.065788e+001 3.616867e+001 3.633569e+001
      vertex   -9.052905e+001 3.633919e+001 3.005291e+001
      vertex   -9.072493e+001 3.606223e+001 3.005291e+001
    endloop
  endfacet
  facet normal -8.046734e-001 5.937175e-001 -3.866033e-004
    outer loop
      vertex   -9.065788e+001 3.616867e+001 3.633569e+001
      vertex   -9.055718e+001 3.630507e+001 3.619930e+001
      vertex   -9.052905e+001 3.633919e+001 3.005291e+001
    endloop
  endfacet
  facet normal -7.511790e-001 6.600985e-001 2.266814e-004
    outer loop
      vertex   -9.052905e+001 3.633919e+001 3.005291e+001
      vertex   -9.055718e+001 3.630507e+001 3.619930e+001
      vertex   -9.044529e+001 3.643244e+001 3.607192e+001
    endloop
  endfacet
  facet normal -6.928984e-001 7.210351e-001 -4.072738e-004
    outer loop
      vertex   -9.028919e+001 3.657905e+001 3.005291e+001
      vertex   -9.044529e+001 3.643244e+001 3.607192e+001
      vertex   -9.032300e+001 3.654989e+001 3.595448e+001
    endloop
  endfacet
  facet normal -7.071063e-001 7.071063e-001 -1.115021e-003
    outer loop
      vertex   -9.028919e+001 3.657905e+001 3.005291e+001
      vertex   -9.052905e+001 3.633919e+001 3.005291e+001
      vertex   -9.044529e+001 3.643244e+001 3.607192e+001
    endloop
  endfacet
  facet normal -9.621660e-001 2.724616e-001 1.122642e-003
    outer loop
      vertex   -9.087119e+001 3.575616e+001 3.005291e+001
      vertex   -9.093563e+001 3.555332e+001 2.404895e+001
      vertex   -9.096361e+001 3.542977e+001 3.005291e+001
    endloop
  endfacet
  facet normal -9.775735e-001 2.105946e-001 1.934573e-004
    outer loop
      vertex   -9.093563e+001 3.555332e+001 3.695105e+001
      vertex   -9.096361e+001 3.542977e+001 3.005291e+001
      vertex   -9.097131e+001 3.538757e+001 3.711680e+001
    endloop
  endfacet
  facet normal -9.621661e-001 2.724617e-001 -9.771178e-004
    outer loop
      vertex   -9.093563e+001 3.555332e+001 3.695105e+001
      vertex   -9.087119e+001 3.575616e+001 3.005291e+001
      vertex   -9.096361e+001 3.542977e+001 3.005291e+001
    endloop
  endfacet
  facet normal -9.563759e-001 2.921386e-001 -3.444239e-004
    outer loop
      vertex   -9.093563e+001 3.555332e+001 3.695105e+001
      vertex   -9.088605e+001 3.571545e+001 3.678892e+001
      vertex   -9.087119e+001 3.575616e+001 3.005291e+001
    endloop
  endfacet
  facet normal -9.280034e-001 3.725718e-001 2.042542e-004
    outer loop
      vertex   -9.087119e+001 3.575616e+001 3.005291e+001
      vertex   -9.088605e+001 3.571545e+001 3.678892e+001
      vertex   -9.082291e+001 3.587280e+001 3.663157e+001
    endloop
  endfacet
  facet normal -8.933455e-001 4.493704e-001 -3.653761e-004
    outer loop
      vertex   -9.072493e+001 3.606223e+001 3.005291e+001
      vertex   -9.082291e+001 3.587280e+001 3.663157e+001
      vertex   -9.074667e+001 3.602423e+001 3.648013e+001
    endloop
  endfacet
  facet normal -9.022800e-001 4.311494e-001 -1.023117e-003
    outer loop
      vertex   -9.072493e+001 3.606223e+001 3.005291e+001
      vertex   -9.087119e+001 3.575616e+001 3.005291e+001
      vertex   -9.082291e+001 3.587280e+001 3.663157e+001
    endloop
  endfacet
  facet normal -0.000000e+000 0.000000e+000 1.000000e+000
    outer loop
      vertex   -8.928441e+001 3.702967e+001 3.550000e+001
      vertex   -8.942481e+001 3.700436e+001 3.550000e+001
      vertex   -8.900000e+001 3.705000e+001 3.550000e+001
    endloop
  endfacet
  facet normal -0.000000e+000 0.000000e+000 1.000000e+000
    outer loop
      vertex   -8.914257e+001 3.704491e+001 3.550000e+001
      vertex   -8.928441e+001 3.702967e+001 3.550000e+001
      vertex   -8.900000e+001 3.705000e+001 3.550000e+001
    endloop
  endfacet
  facet normal 0.000000e+000 0.000000e+000 1.000000e+000
    outer loop
      vertex   -8.200000e+001 3.705000e+001 3.550000e+001
      vertex   -8.900000e+001 3.705000e+001 3.550000e+001
      vertex   -8.200000e+001 3.700436e+001 3.550000e+001
    endloop
  endfacet
  facet normal 0.000000e+000 0.000000e+000 1.000000e+000
    outer loop
      vertex   -8.200000e+001 3.700436e+001 3.550000e+001
      vertex   -8.900000e+001 3.705000e+001 3.550000e+001
      vertex   -8.942481e+001 3.700436e+001 3.550000e+001
    endloop
  endfacet
  facet normal -0.000000e+000 1.000000e+000 0.000000e+000
    outer loop
      vertex   -8.900000e+001 3.705000e+001 2.550000e+001
      vertex   -8.900000e+001 3.705000e+001 3.550000e+001
      vertex   -8.200000e+001 3.705000e+001 2.550000e+001
    endloop
  endfacet
  facet normal 0.000000e+000 1.000000e+000 -0.000000e+000
    outer loop
      vertex   -8.200000e+001 3.705000e+001 2.550000e+001
      vertex   -8.900000e+001 3.705000e+001 3.550000e+001
      vertex   -8.200000e+001 3.705000e+001 3.550000e+001
    endloop
  endfacet
  facet normal 0.000000e+000 1.000000e+000 -0.000000e+000
    outer loop
      vertex   -8.200000e+001 3.260000e+001 3.990436e+001
      vertex   -9.100000e+001 3.260000e+001 3.990436e+001
      vertex   -8.200000e+001 3.260000e+001 6.100000e+001
    endloop
  endfacet
  facet normal 0.000000e+000 1.000000e+000 -0.000000e+000
    outer loop
      vertex   -8.200000e+001 3.260000e+001 6.100000e+001
      vertex   -9.100000e+001 3.260000e+001 3.990436e+001
      vertex   -9.100000e+001 3.260000e+001 6.100000e+001
    endloop
  endfacet
  facet normal -0.000000e+000 -1.000000e+000 -0.000000e+000
    outer loop
      vertex   -5.330000e+001 2.830000e+001 6.100000e+001
      vertex   -8.630000e+001 2.830000e+001 6.100000e+001
      vertex   -5.330000e+001 2.830000e+001 3.050000e+001
    endloop
  endfacet
  facet normal -0.000000e+000 -1.000000e+000 -0.000000e+000
    outer loop
      vertex   -5.330000e+001 2.830000e+001 3.050000e+001
      vertex   -8.630000e+001 2.830000e+001 6.100000e+001
      vertex   -8.630000e+001 2.830000e+001 3.050000e+001
    endloop
  endfacet
  facet normal -0.000000e+000 -1.000000e+000 -0.000000e+000
    outer loop
      vertex   -5.330000e+001 2.830000e+001 8.881784e-015
      vertex   -8.630000e+001 2.830000e+001 3.050000e+001
      vertex   -8.630000e+001 2.830000e+001 8.881784e-015
    endloop
  endfacet
  facet normal 0.000000e+000 -1.000000e+000 0.000000e+000
    outer loop
      vertex   -5.330000e+001 2.830000e+001 8.881784e-015
      vertex   -5.330000e+001 2.830000e+001 3.050000e+001
      vertex   -8.630000e+001 2.830000e+001 3.050000e+001
    endloop
  endfacet
  facet normal -1.000000e+000 0.000000e+000 -0.000000e+000
    outer loop
      vertex   -5.330000e+001 2.500000e+001 6.100000e+001
      vertex   -5.330000e+001 2.830000e+001 6.100000e+001
      vertex   -5.330000e+001 2.500000e+001 3.050000e+001
    endloop
  endfacet
  facet normal -1.000000e+000 0.000000e+000 0.000000e+000
    outer loop
      vertex   -5.330000e+001 2.500000e+001 3.050000e+001
      vertex   -5.330000e+001 2.830000e+001 6.100000e+001
      vertex   -5.330000e+001 2.830000e+001 3.050000e+001
    endloop
  endfacet
  facet normal -1.000000e+000 0.000000e+000 0.000000e+000
    outer loop
      vertex   -5.330000e+001 2.500000e+001 8.881784e-015
      vertex   -5.330000e+001 2.830000e+001 3.050000e+001
      vertex   -5.330000e+001 2.830000e+001 8.881784e-015
    endloop
  endfacet
  facet normal -1.000000e+000 0.000000e+000 0.000000e+000
    outer loop
      vertex   -5.330000e+001 2.500000e+001 8.881784e-015
      vertex   -5.330000e+001 2.500000e+001 3.050000e+001
      vertex   -5.330000e+001 2.830000e+001 3.050000e+001
    endloop
  endfacet
  facet normal 1.000000e+000 0.000000e+000 0.000000e+000
    outer loop
      vertex   -8.630000e+001 2.830000e+001 6.100000e+001
      vertex   -8.630000e+001 2.500000e+001 6.100000e+001
      vertex   -8.630000e+001 2.830000e+001 3.050000e+001
    endloop
  endfacet
  facet normal 1.000000e+000 -4.306320e-015 -4.659297e-016
    outer loop
      vertex   -8.630000e+001 2.830000e+001 3.050000e+001
      vertex   -8.630000e+001 2.500000e+001 6.100000e+001
      vertex   -8.630000e+001 2.500000e+001 3.050000e+001
    endloop
  endfacet
  facet normal 1.000000e+000 0.000000e+000 4.659297e-016
    outer loop
      vertex   -8.630000e+001 2.830000e+001 8.881784e-015
      vertex   -8.630000e+001 2.500000e+001 3.050000e+001
      vertex   -8.630000e+001 2.500000e+001 8.881784e-015
    endloop
  endfacet
  facet normal 1.000000e+000 -4.306320e-015 0.000000e+000
    outer loop
      vertex   -8.630000e+001 2.830000e+001 8.881784e-015
      vertex   -8.630000e+001 2.830000e+001 3.050000e+001
      vertex   -8.630000e+001 2.500000e+001 3.050000e+001
    endloop
  endfacet
  facet normal 0.000000e+000 -0.000000e+000 1.000000e+000
    outer loop
      vertex   -8.630000e+001 2.500000e+001 6.100000e+001
      vertex   -8.630000e+001 2.830000e+001 6.100000e+001
      vertex   -9.100000e+001 2.500000e+001 6.100000e+001
    endloop
  endfacet
  facet normal 0.000000e+000 -0.000000e+000 1.000000e+000
    outer loop
      vertex   -9.100000e+001 2.500000e+001 6.100000e+001
      vertex   -8.630000e+001 2.830000e+001 6.100000e+001
      vertex   -9.100000e+001 3.260000e+001 6.100000e+001
    endloop
  endfacet
  facet normal -0.000000e+000 0.000000e+000 1.000000e+000
    outer loop
      vertex   -9.100000e+001 3.260000e+001 6.100000e+001
      vertex   -8.630000e+001 2.830000e+001 6.100000e+001
      vertex   -8.200000e+001 3.260000e+001 6.100000e+001
    endloop
  endfacet
  facet normal -0.000000e+000 0.000000e+000 1.000000e+000
    outer loop
      vertex   -8.200000e+001 3.260000e+001 6.100000e+001
      vertex   -8.630000e+001 2.830000e+001 6.100000e+001
      vertex   -7.870000e+001 3.260000e+001 6.100000e+001
    endloop
  endfacet
  facet normal -0.000000e+000 0.000000e+000 1.000000e+000
    outer loop
      vertex   -7.870000e+001 3.590000e+001 6.100000e+001
      vertex   -8.200000e+001 3.260000e+001 6.100000e+001
      vertex   -7.870000e+001 3.260000e+001 6.100000e+001
    endloop
  endfacet
  facet normal 0.000000e+000 0.000000e+000 1.000000e+000
    outer loop
      vertex   -7.870000e+001 3.590000e+001 6.100000e+001
      vertex   -8.200000e+001 3.990000e+001 6.100000e+001
      vertex   -8.200000e+001 3.260000e+001 6.100000e+001
    endloop
  endfacet
  facet normal 0.000000e+000 -0.000000e+000 1.000000e+000
    outer loop
      vertex   -7.870000e+001 3.590000e+001 6.100000e+001
      vertex   -7.870000e+001 3.840000e+001 6.100000e+001
      vertex   -8.200000e+001 3.990000e+001 6.100000e+001
    endloop
  endfacet
  facet normal 0.000000e+000 -0.000000e+000 1.000000e+000
    outer loop
      vertex   -7.870000e+001 3.590000e+001 6.100000e+001
      vertex   -6.870000e+001 3.590000e+001 6.100000e+001
      vertex   -7.870000e+001 3.840000e+001 6.100000e+001
    endloop
  endfacet
  facet normal -0.000000e+000 0.000000e+000 1.000000e+000
    outer loop
      vertex   -7.870000e+001 3.840000e+001 6.100000e+001
      vertex   -6.870000e+001 3.590000e+001 6.100000e+001
      vertex   -6.870000e+001 3.840000e+001 6.100000e+001
    endloop
  endfacet
  facet normal 0.000000e+000 -0.000000e+000 1.000000e+000
    outer loop
      vertex   -8.630000e+001 2.830000e+001 6.100000e+001
      vertex   -5.330000e+001 2.830000e+001 6.100000e+001
      vertex   -7.870000e+001 3.260000e+001 6.100000e+001
    endloop
  endfacet
  facet normal -0.000000e+000 0.000000e+000 1.000000e+000
    outer loop
      vertex   -7.870000e+001 3.260000e+001 6.100000e+001
      vertex   -5.330000e+001 2.830000e+001 6.100000e+001
      vertex   -5.000000e+001 3.080000e+001 6.100000e+001
    endloop
  endfacet
  facet normal 0.000000e+000 0.000000e+000 1.000000e+000
    outer loop
      vertex   -5.000000e+001 3.260000e+001 6.100000e+001
      vertex   -7.870000e+001 3.260000e+001 6.100000e+001
      vertex   -5.000000e+001 3.080000e+001 6.100000e+001
    endloop
  endfacet
  facet normal 0.000000e+000 -0.000000e+000 1.000000e+000
    outer loop
      vertex   -5.330000e+001 2.500000e+001 6.100000e+001
      vertex   -5.000000e+001 2.500000e+001 6.100000e+001
      vertex   -5.330000e+001 2.830000e+001 6.100000e+001
    endloop
  endfacet
  facet normal -0.000000e+000 0.000000e+000 1.000000e+000
    outer loop
      vertex   -5.330000e+001 2.830000e+001 6.100000e+001
      vertex   -5.000000e+001 2.500000e+001 6.100000e+001
      vertex   -5.000000e+001 2.830000e+001 6.100000e+001
    endloop
  endfacet
  facet normal -0.000000e+000 0.000000e+000 1.000000e+000
    outer loop
      vertex   -5.000000e+001 3.080000e+001 6.100000e+001
      vertex   -5.000000e+001 2.830000e+001 6.100000e+001
      vertex   -4.000000e+001 2.830000e+001 6.100000e+001
    endloop
  endfacet
  facet normal 0.000000e+000 0.000000e+000 1.000000e+000
    outer loop
      vertex   -4.000000e+001 3.080000e+001 6.100000e+001
      vertex   -5.000000e+001 3.080000e+001 6.100000e+001
      vertex   -4.000000e+001 2.830000e+001 6.100000e+001
    endloop
  endfacet
  facet normal 0.000000e+000 0.000000e+000 1.000000e+000
    outer loop
      vertex   -5.330000e+001 2.830000e+001 6.100000e+001
      vertex   -5.000000e+001 2.830000e+001 6.100000e+001
      vertex   -5.000000e+001 3.080000e+001 6.100000e+001
    endloop
  endfacet
  facet normal 0.000000e+000 -0.000000e+000 1.000000e+000
    outer loop
      vertex   -7.870000e+001 3.840000e+001 6.100000e+001
      vertex   -7.870000e+001 3.990000e+001 6.100000e+001
      vertex   -8.200000e+001 3.990000e+001 6.100000e+001
    endloop
  endfacet
  facet normal -0.000000e+000 -1.000000e+000 -0.000000e+000
    outer loop
      vertex   -5.000000e+001 2.500000e+001 6.100000e+001
      vertex   -5.330000e+001 2.500000e+001 6.100000e+001
      vertex   -5.000000e+001 2.500000e+001 3.050000e+001
    endloop
  endfacet
  facet normal -0.000000e+000 -1.000000e+000 -0.000000e+000
    outer loop
      vertex   -5.000000e+001 2.500000e+001 3.050000e+001
      vertex   -5.330000e+001 2.500000e+001 6.100000e+001
      vertex   -5.330000e+001 2.500000e+001 3.050000e+001
    endloop
  endfacet
  facet normal -0.000000e+000 -1.000000e+000 -0.000000e+000
    outer loop
      vertex   -5.000000e+001 2.500000e+001 8.881784e-015
      vertex   -5.330000e+001 2.500000e+001 3.050000e+001
      vertex   -5.330000e+001 2.500000e+001 8.881784e-015
    endloop
  endfacet
  facet normal 0.000000e+000 -1.000000e+000 0.000000e+000
    outer loop
      vertex   -5.000000e+001 2.500000e+001 8.881784e-015
      vertex   -5.000000e+001 2.500000e+001 3.050000e+001
      vertex   -5.330000e+001 2.500000e+001 3.050000e+001
    endloop
  endfacet
  facet normal 1.000000e+000 0.000000e+000 -0.000000e+000
    outer loop
      vertex   -7.870000e+001 3.260000e+001 8.881784e-015
      vertex   -7.870000e+001 3.590000e+001 8.881784e-015
      vertex   -7.870000e+001 3.260000e+001 3.050000e+001
    endloop
  endfacet
  facet normal 1.000000e+000 -0.000000e+000 0.000000e+000
    outer loop
      vertex   -7.870000e+001 3.260000e+001 3.050000e+001
      vertex   -7.870000e+001 3.590000e+001 8.881784e-015
      vertex   -7.870000e+001 3.590000e+001 3.050000e+001
    endloop
  endfacet
  facet normal 1.000000e+000 -0.000000e+000 0.000000e+000
    outer loop
      vertex   -7.870000e+001 3.260000e+001 6.100000e+001
      vertex   -7.870000e+001 3.590000e+001 3.050000e+001
      vertex   -7.870000e+001 3.590000e+001 6.100000e+001
    endloop
  endfacet
  facet normal 1.000000e+000 -0.000000e+000 0.000000e+000
    outer loop
      vertex   -7.870000e+001 3.260000e+001 6.100000e+001
      vertex   -7.870000e+001 3.260000e+001 3.050000e+001
      vertex   -7.870000e+001 3.590000e+001 3.050000e+001
    endloop
  endfacet
  facet normal 0.000000e+000 1.000000e+000 -0.000000e+000
    outer loop
      vertex   -5.000000e+001 3.260000e+001 8.881784e-015
      vertex   -7.870000e+001 3.260000e+001 8.881784e-015
      vertex   -5.000000e+001 3.260000e+001 3.050000e+001
    endloop
  endfacet
  facet normal 0.000000e+000 1.000000e+000 -0.000000e+000
    outer loop
      vertex   -5.000000e+001 3.260000e+001 3.050000e+001
      vertex   -7.870000e+001 3.260000e+001 8.881784e-015
      vertex   -7.870000e+001 3.260000e+001 3.050000e+001
    endloop
  endfacet
  facet normal 0.000000e+000 1.000000e+000 -0.000000e+000
    outer loop
      vertex   -5.000000e+001 3.260000e+001 6.100000e+001
      vertex   -7.870000e+001 3.260000e+001 3.050000e+001
      vertex   -7.870000e+001 3.260000e+001 6.100000e+001
    endloop
  endfacet
  facet normal 0.000000e+000 1.000000e+000 0.000000e+000
    outer loop
      vertex   -5.000000e+001 3.260000e+001 6.100000e+001
      vertex   -5.000000e+001 3.260000e+001 3.050000e+001
      vertex   -7.870000e+001 3.260000e+001 3.050000e+001
    endloop
  endfacet
  facet normal 1.000000e+000 0.000000e+000 -0.000000e+000
    outer loop
      vertex   -5.000000e+001 3.080000e+001 8.881784e-015
      vertex   -5.000000e+001 3.260000e+001 8.881784e-015
      vertex   -5.000000e+001 3.080000e+001 3.050000e+001
    endloop
  endfacet
  facet normal 1.000000e+000 -0.000000e+000 0.000000e+000
    outer loop
      vertex   -5.000000e+001 3.080000e+001 3.050000e+001
      vertex   -5.000000e+001 3.260000e+001 8.881784e-015
      vertex   -5.000000e+001 3.260000e+001 3.050000e+001
    endloop
  endfacet
  facet normal 1.000000e+000 -0.000000e+000 0.000000e+000
    outer loop
      vertex   -5.000000e+001 3.080000e+001 6.100000e+001
      vertex   -5.000000e+001 3.260000e+001 3.050000e+001
      vertex   -5.000000e+001 3.260000e+001 6.100000e+001
    endloop
  endfacet
  facet normal 1.000000e+000 -0.000000e+000 0.000000e+000
    outer loop
      vertex   -5.000000e+001 3.080000e+001 6.100000e+001
      vertex   -5.000000e+001 3.080000e+001 3.050000e+001
      vertex   -5.000000e+001 3.260000e+001 3.050000e+001
    endloop
  endfacet
  facet normal 0.000000e+000 1.000000e+000 -0.000000e+000
    outer loop
      vertex   -4.000000e+001 3.080000e+001 8.881784e-015
      vertex   -5.000000e+001 3.080000e+001 8.881784e-015
      vertex   -4.000000e+001 3.080000e+001 3.050000e+001
    endloop
  endfacet
  facet normal 0.000000e+000 1.000000e+000 -0.000000e+000
    outer loop
      vertex   -4.000000e+001 3.080000e+001 3.050000e+001
      vertex   -5.000000e+001 3.080000e+001 8.881784e-015
      vertex   -5.000000e+001 3.080000e+001 3.050000e+001
    endloop
  endfacet
  facet normal 0.000000e+000 1.000000e+000 -0.000000e+000
    outer loop
      vertex   -4.000000e+001 3.080000e+001 6.100000e+001
      vertex   -5.000000e+001 3.080000e+001 3.050000e+001
      vertex   -5.000000e+001 3.080000e+001 6.100000e+001
    endloop
  endfacet
  facet normal 0.000000e+000 1.000000e+000 0.000000e+000
    outer loop
      vertex   -4.000000e+001 3.080000e+001 6.100000e+001
      vertex   -4.000000e+001 3.080000e+001 3.050000e+001
      vertex   -5.000000e+001 3.080000e+001 3.050000e+001
    endloop
  endfacet
  facet normal 1.000000e+000 0.000000e+000 -2.329648e-016
    outer loop
      vertex   -4.000000e+001 2.830000e+001 8.881784e-015
      vertex   -4.000000e+001 3.080000e+001 8.881784e-015
      vertex   -4.000000e+001 2.830000e+001 3.050000e+001
    endloop
  endfacet
  facet normal 1.000000e+000 5.684342e-015 2.329648e-016
    outer loop
      vertex   -4.000000e+001 2.830000e+001 3.050000e+001
      vertex   -4.000000e+001 3.080000e+001 8.881784e-015
      vertex   -4.000000e+001 3.080000e+001 3.050000e+001
    endloop
  endfacet
  facet normal 1.000000e+000 0.000000e+000 -2.329648e-016
    outer loop
      vertex   -4.000000e+001 2.830000e+001 6.100000e+001
      vertex   -4.000000e+001 3.080000e+001 3.050000e+001
      vertex   -4.000000e+001 3.080000e+001 6.100000e+001
    endloop
  endfacet
  facet normal 1.000000e+000 5.684342e-015 2.329648e-016
    outer loop
      vertex   -4.000000e+001 2.830000e+001 6.100000e+001
      vertex   -4.000000e+001 2.830000e+001 3.050000e+001
      vertex   -4.000000e+001 3.080000e+001 3.050000e+001
    endloop
  endfacet
  facet normal 0.000000e+000 -1.000000e+000 0.000000e+000
    outer loop
      vertex   -5.000000e+001 2.830000e+001 8.881784e-015
      vertex   -4.000000e+001 2.830000e+001 8.881784e-015
      vertex   -5.000000e+001 2.830000e+001 3.050000e+001
    endloop
  endfacet
  facet normal 0.000000e+000 -1.000000e+000 0.000000e+000
    outer loop
      vertex   -5.000000e+001 2.830000e+001 3.050000e+001
      vertex   -4.000000e+001 2.830000e+001 8.881784e-015
      vertex   -4.000000e+001 2.830000e+001 3.050000e+001
    endloop
  endfacet
  facet normal 0.000000e+000 -1.000000e+000 0.000000e+000
    outer loop
      vertex   -5.000000e+001 2.830000e+001 6.100000e+001
      vertex   -4.000000e+001 2.830000e+001 3.050000e+001
      vertex   -4.000000e+001 2.830000e+001 6.100000e+001
    endloop
  endfacet
  facet normal 0.000000e+000 -1.000000e+000 0.000000e+000
    outer loop
      vertex   -5.000000e+001 2.830000e+001 6.100000e+001
      vertex   -5.000000e+001 2.830000e+001 3.050000e+001
      vertex   -4.000000e+001 2.830000e+001 3.050000e+001
    endloop
  endfacet
  facet normal 1.000000e+000 0.000000e+000 -0.000000e+000
    outer loop
      vertex   -5.000000e+001 2.500000e+001 8.881784e-015
      vertex   -5.000000e+001 2.830000e+001 8.881784e-015
      vertex   -5.000000e+001 2.500000e+001 3.050000e+001
    endloop
  endfacet
  facet normal 1.000000e+000 -0.000000e+000 0.000000e+000
    outer loop
      vertex   -5.000000e+001 2.500000e+001 3.050000e+001
      vertex   -5.000000e+001 2.830000e+001 8.881784e-015
      vertex   -5.000000e+001 2.830000e+001 3.050000e+001
    endloop
  endfacet
  facet normal 1.000000e+000 -0.000000e+000 0.000000e+000
    outer loop
      vertex   -5.000000e+001 2.500000e+001 6.100000e+001
      vertex   -5.000000e+001 2.830000e+001 3.050000e+001
      vertex   -5.000000e+001 2.830000e+001 6.100000e+001
    endloop
  endfacet
  facet normal 1.000000e+000 -0.000000e+000 0.000000e+000
    outer loop
      vertex   -5.000000e+001 2.500000e+001 6.100000e+001
      vertex   -5.000000e+001 2.500000e+001 3.050000e+001
      vertex   -5.000000e+001 2.830000e+001 3.050000e+001
    endloop
  endfacet
  facet normal 0.000000e+000 -1.000000e+000 0.000000e+000
    outer loop
      vertex   -9.100000e+001 2.500000e+001 2.600000e+001
      vertex   -9.100000e+001 2.500000e+001 8.881784e-015
      vertex   -8.985700e+001 2.500000e+001 2.600000e+001
    endloop
  endfacet
  facet normal 0.000000e+000 -1.000000e+000 -0.000000e+000
    outer loop
      vertex   -8.985700e+001 2.500000e+001 2.600000e+001
      vertex   -9.100000e+001 2.500000e+001 8.881784e-015
      vertex   -8.630000e+001 2.500000e+001 8.881784e-015
    endloop
  endfacet
  facet normal 0.000000e+000 -1.000000e+000 -0.000000e+000
    outer loop
      vertex   -8.630000e+001 2.500000e+001 3.050000e+001
      vertex   -8.985700e+001 2.500000e+001 2.600000e+001
      vertex   -8.630000e+001 2.500000e+001 8.881784e-015
    endloop
  endfacet
  facet normal -0.000000e+000 -1.000000e+000 -0.000000e+000
    outer loop
      vertex   -8.630000e+001 2.500000e+001 3.050000e+001
      vertex   -8.985700e+001 2.500000e+001 3.536067e+001
      vertex   -8.985700e+001 2.500000e+001 2.600000e+001
    endloop
  endfacet
  facet normal -0.000000e+000 -1.000000e+000 0.000000e+000
    outer loop
      vertex   -8.630000e+001 2.500000e+001 3.050000e+001
      vertex   -8.630000e+001 2.500000e+001 6.100000e+001
      vertex   -8.985700e+001 2.500000e+001 3.536067e+001
    endloop
  endfacet
  facet normal 0.000000e+000 -1.000000e+000 0.000000e+000
    outer loop
      vertex   -8.985700e+001 2.500000e+001 3.536067e+001
      vertex   -8.630000e+001 2.500000e+001 6.100000e+001
      vertex   -9.100000e+001 2.500000e+001 6.100000e+001
    endloop
  endfacet
  facet normal 0.000000e+000 -1.000000e+000 0.000000e+000
    outer loop
      vertex   -9.100000e+001 2.500000e+001 3.536067e+001
      vertex   -8.985700e+001 2.500000e+001 3.536067e+001
      vertex   -9.100000e+001 2.500000e+001 6.100000e+001
    endloop
  endfacet
  facet normal -0.000000e+000 1.000000e+000 0.000000e+000
    outer loop
      vertex   -9.100000e+001 3.260000e+001 2.109564e+001
      vertex   -8.200000e+001 3.260000e+001 2.109564e+001
      vertex   -9.100000e+001 3.260000e+001 8.881784e-015
    endloop
  endfacet
  facet normal -0.000000e+000 1.000000e+000 0.000000e+000
    outer loop
      vertex   -9.100000e+001 3.260000e+001 8.881784e-015
      vertex   -8.200000e+001 3.260000e+001 2.109564e+001
      vertex   -8.200000e+001 3.260000e+001 8.881784e-015
    endloop
  endfacet
  facet normal 0.000000e+000 1.000000e+000 -0.000000e+000
    outer loop
      vertex   -7.870000e+001 3.990000e+001 8.881784e-015
      vertex   -8.200000e+001 3.990000e+001 8.881784e-015
      vertex   -7.870000e+001 3.990000e+001 3.050000e+001
    endloop
  endfacet
  facet normal 0.000000e+000 1.000000e+000 -0.000000e+000
    outer loop
      vertex   -7.870000e+001 3.990000e+001 3.050000e+001
      vertex   -8.200000e+001 3.990000e+001 8.881784e-015
      vertex   -8.200000e+001 3.990000e+001 3.050000e+001
    endloop
  endfacet
  facet normal 0.000000e+000 1.000000e+000 -0.000000e+000
    outer loop
      vertex   -7.870000e+001 3.990000e+001 6.100000e+001
      vertex   -8.200000e+001 3.990000e+001 3.050000e+001
      vertex   -8.200000e+001 3.990000e+001 6.100000e+001
    endloop
  endfacet
  facet normal 0.000000e+000 1.000000e+000 0.000000e+000
    outer loop
      vertex   -7.870000e+001 3.990000e+001 6.100000e+001
      vertex   -7.870000e+001 3.990000e+001 3.050000e+001
      vertex   -8.200000e+001 3.990000e+001 3.050000e+001
    endloop
  endfacet
  facet normal 1.000000e+000 0.000000e+000 -0.000000e+000
    outer loop
      vertex   -7.870000e+001 3.840000e+001 8.881784e-015
      vertex   -7.870000e+001 3.990000e+001 8.881784e-015
      vertex   -7.870000e+001 3.840000e+001 3.050000e+001
    endloop
  endfacet
  facet normal 1.000000e+000 -0.000000e+000 0.000000e+000
    outer loop
      vertex   -7.870000e+001 3.840000e+001 3.050000e+001
      vertex   -7.870000e+001 3.990000e+001 8.881784e-015
      vertex   -7.870000e+001 3.990000e+001 3.050000e+001
    endloop
  endfacet
  facet normal 1.000000e+000 -0.000000e+000 0.000000e+000
    outer loop
      vertex   -7.870000e+001 3.840000e+001 6.100000e+001
      vertex   -7.870000e+001 3.990000e+001 3.050000e+001
      vertex   -7.870000e+001 3.990000e+001 6.100000e+001
    endloop
  endfacet
  facet normal 1.000000e+000 -0.000000e+000 0.000000e+000
    outer loop
      vertex   -7.870000e+001 3.840000e+001 6.100000e+001
      vertex   -7.870000e+001 3.840000e+001 3.050000e+001
      vertex   -7.870000e+001 3.990000e+001 3.050000e+001
    endloop
  endfacet
  facet normal 0.000000e+000 1.000000e+000 -0.000000e+000
    outer loop
      vertex   -6.870000e+001 3.840000e+001 8.881784e-015
      vertex   -7.870000e+001 3.840000e+001 8.881784e-015
      vertex   -6.870000e+001 3.840000e+001 3.050000e+001
    endloop
  endfacet
  facet normal 0.000000e+000 1.000000e+000 -0.000000e+000
    outer loop
      vertex   -6.870000e+001 3.840000e+001 3.050000e+001
      vertex   -7.870000e+001 3.840000e+001 8.881784e-015
      vertex   -7.870000e+001 3.840000e+001 3.050000e+001
    endloop
  endfacet
  facet normal 0.000000e+000 1.000000e+000 -0.000000e+000
    outer loop
      vertex   -6.870000e+001 3.840000e+001 6.100000e+001
      vertex   -7.870000e+001 3.840000e+001 3.050000e+001
      vertex   -7.870000e+001 3.840000e+001 6.100000e+001
    endloop
  endfacet
  facet normal 0.000000e+000 1.000000e+000 0.000000e+000
    outer loop
      vertex   -6.870000e+001 3.840000e+001 6.100000e+001
      vertex   -6.870000e+001 3.840000e+001 3.050000e+001
      vertex   -7.870000e+001 3.840000e+001 3.050000e+001
    endloop
  endfacet
  facet normal 1.000000e+000 0.000000e+000 -0.000000e+000
    outer loop
      vertex   -6.870000e+001 3.590000e+001 8.881784e-015
      vertex   -6.870000e+001 3.840000e+001 8.881784e-015
      vertex   -6.870000e+001 3.590000e+001 3.050000e+001
    endloop
  endfacet
  facet normal 1.000000e+000 5.684342e-015 4.659297e-016
    outer loop
      vertex   -6.870000e+001 3.590000e+001 3.050000e+001
      vertex   -6.870000e+001 3.840000e+001 8.881784e-015
      vertex   -6.870000e+001 3.840000e+001 3.050000e+001
    endloop
  endfacet
  facet normal 1.000000e+000 0.000000e+000 -4.659297e-016
    outer loop
      vertex   -6.870000e+001 3.590000e+001 6.100000e+001
      vertex   -6.870000e+001 3.840000e+001 3.050000e+001
      vertex   -6.870000e+001 3.840000e+001 6.100000e+001
    endloop
  endfacet
  facet normal 1.000000e+000 5.684342e-015 0.000000e+000
    outer loop
      vertex   -6.870000e+001 3.590000e+001 6.100000e+001
      vertex   -6.870000e+001 3.590000e+001 3.050000e+001
      vertex   -6.870000e+001 3.840000e+001 3.050000e+001
    endloop
  endfacet
  facet normal 0.000000e+000 -1.000000e+000 0.000000e+000
    outer loop
      vertex   -7.870000e+001 3.590000e+001 8.881784e-015
      vertex   -6.870000e+001 3.590000e+001 8.881784e-015
      vertex   -7.870000e+001 3.590000e+001 3.050000e+001
    endloop
  endfacet
  facet normal 0.000000e+000 -1.000000e+000 0.000000e+000
    outer loop
      vertex   -7.870000e+001 3.590000e+001 3.050000e+001
      vertex   -6.870000e+001 3.590000e+001 8.881784e-015
      vertex   -6.870000e+001 3.590000e+001 3.050000e+001
    endloop
  endfacet
  facet normal 0.000000e+000 -1.000000e+000 0.000000e+000
    outer loop
      vertex   -7.870000e+001 3.590000e+001 6.100000e+001
      vertex   -6.870000e+001 3.590000e+001 3.050000e+001
      vertex   -6.870000e+001 3.590000e+001 6.100000e+001
    endloop
  endfacet
  facet normal 0.000000e+000 -1.000000e+000 0.000000e+000
    outer loop
      vertex   -7.870000e+001 3.590000e+001 6.100000e+001
      vertex   -7.870000e+001 3.590000e+001 3.050000e+001
      vertex   -6.870000e+001 3.590000e+001 3.050000e+001
    endloop
  endfacet
  facet normal 0.000000e+000 0.000000e+000 -1.000000e+000
    outer loop
      vertex   -8.630000e+001 2.500000e+001 8.881784e-015
      vertex   -9.100000e+001 2.500000e+001 8.881784e-015
      vertex   -8.630000e+001 2.830000e+001 8.881784e-015
    endloop
  endfacet
  facet normal -0.000000e+000 0.000000e+000 -1.000000e+000
    outer loop
      vertex   -8.630000e+001 2.830000e+001 8.881784e-015
      vertex   -9.100000e+001 2.500000e+001 8.881784e-015
      vertex   -9.100000e+001 3.260000e+001 8.881784e-015
    endloop
  endfacet
  facet normal -0.000000e+000 0.000000e+000 -1.000000e+000
    outer loop
      vertex   -8.200000e+001 3.260000e+001 8.881784e-015
      vertex   -8.630000e+001 2.830000e+001 8.881784e-015
      vertex   -9.100000e+001 3.260000e+001 8.881784e-015
    endloop
  endfacet
  facet normal 0.000000e+000 -0.000000e+000 -1.000000e+000
    outer loop
      vertex   -8.200000e+001 3.260000e+001 8.881784e-015
      vertex   -7.870000e+001 3.260000e+001 8.881784e-015
      vertex   -8.630000e+001 2.830000e+001 8.881784e-015
    endloop
  endfacet
  facet normal 0.000000e+000 0.000000e+000 -1.000000e+000
    outer loop
      vertex   -8.200000e+001 3.260000e+001 8.881784e-015
      vertex   -7.870000e+001 3.590000e+001 8.881784e-015
      vertex   -7.870000e+001 3.260000e+001 8.881784e-015
    endloop
  endfacet
  facet normal 0.000000e+000 0.000000e+000 -1.000000e+000
    outer loop
      vertex   -8.200000e+001 3.260000e+001 8.881784e-015
      vertex   -8.200000e+001 3.990000e+001 8.881784e-015
      vertex   -7.870000e+001 3.590000e+001 8.881784e-015
    endloop
  endfacet
  facet normal 0.000000e+000 0.000000e+000 -1.000000e+000
    outer loop
      vertex   -7.870000e+001 3.590000e+001 8.881784e-015
      vertex   -8.200000e+001 3.990000e+001 8.881784e-015
      vertex   -7.870000e+001 3.840000e+001 8.881784e-015
    endloop
  endfacet
  facet normal -0.000000e+000 0.000000e+000 -1.000000e+000
    outer loop
      vertex   -6.870000e+001 3.840000e+001 8.881784e-015
      vertex   -7.870000e+001 3.590000e+001 8.881784e-015
      vertex   -7.870000e+001 3.840000e+001 8.881784e-015
    endloop
  endfacet
  facet normal -0.000000e+000 -0.000000e+000 -1.000000e+000
    outer loop
      vertex   -6.870000e+001 3.840000e+001 8.881784e-015
      vertex   -6.870000e+001 3.590000e+001 8.881784e-015
      vertex   -7.870000e+001 3.590000e+001 8.881784e-015
    endloop
  endfacet
  facet normal 0.000000e+000 0.000000e+000 -1.000000e+000
    outer loop
      vertex   -8.200000e+001 3.990000e+001 8.881784e-015
      vertex   -7.870000e+001 3.990000e+001 8.881784e-015
      vertex   -7.870000e+001 3.840000e+001 8.881784e-015
    endloop
  endfacet
  facet normal -0.000000e+000 -0.000000e+000 -1.000000e+000
    outer loop
      vertex   -5.000000e+001 3.260000e+001 8.881784e-015
      vertex   -5.000000e+001 3.080000e+001 8.881784e-015
      vertex   -7.870000e+001 3.260000e+001 8.881784e-015
    endloop
  endfacet
  facet normal 0.000000e+000 -0.000000e+000 -1.000000e+000
    outer loop
      vertex   -7.870000e+001 3.260000e+001 8.881784e-015
      vertex   -5.000000e+001 3.080000e+001 8.881784e-015
      vertex   -5.330000e+001 2.830000e+001 8.881784e-015
    endloop
  endfacet
  facet normal 0.000000e+000 0.000000e+000 -1.000000e+000
    outer loop
      vertex   -8.630000e+001 2.830000e+001 8.881784e-015
      vertex   -7.870000e+001 3.260000e+001 8.881784e-015
      vertex   -5.330000e+001 2.830000e+001 8.881784e-015
    endloop
  endfacet
  facet normal 0.000000e+000 0.000000e+000 -1.000000e+000
    outer loop
      vertex   -5.330000e+001 2.830000e+001 8.881784e-015
      vertex   -5.000000e+001 3.080000e+001 8.881784e-015
      vertex   -5.000000e+001 2.830000e+001 8.881784e-015
    endloop
  endfacet
  facet normal 0.000000e+000 0.000000e+000 -1.000000e+000
    outer loop
      vertex   -5.330000e+001 2.500000e+001 8.881784e-015
      vertex   -5.000000e+001 2.830000e+001 8.881784e-015
      vertex   -5.000000e+001 2.500000e+001 8.881784e-015
    endloop
  endfacet
  facet normal 0.000000e+000 0.000000e+000 -1.000000e+000
    outer loop
      vertex   -5.330000e+001 2.500000e+001 8.881784e-015
      vertex   -5.330000e+001 2.830000e+001 8.881784e-015
      vertex   -5.000000e+001 2.830000e+001 8.881784e-015
    endloop
  endfacet
  facet normal 0.000000e+000 0.000000e+000 -1.000000e+000
    outer loop
      vertex   -4.000000e+001 2.830000e+001 8.881784e-015
      vertex   -5.000000e+001 2.830000e+001 8.881784e-015
      vertex   -4.000000e+001 3.080000e+001 8.881784e-015
    endloop
  endfacet
  facet normal -0.000000e+000 0.000000e+000 -1.000000e+000
    outer loop
      vertex   -4.000000e+001 3.080000e+001 8.881784e-015
      vertex   -5.000000e+001 2.830000e+001 8.881784e-015
      vertex   -5.000000e+001 3.080000e+001 8.881784e-015
    endloop
  endfacet
endsolid
